<?xml version="1.0" encoding="utf-8" standalone="no"?>
<!DOCTYPE svg PUBLIC "-//W3C//DTD SVG 1.1//EN"
  "http://www.w3.org/Graphics/SVG/1.1/DTD/svg11.dtd">
<svg xmlns:xlink="http://www.w3.org/1999/xlink" width="460.8pt" height="345.6pt" viewBox="0 0 460.8 345.6" xmlns="http://www.w3.org/2000/svg" version="1.1">
 <metadata>
  <rdf:RDF xmlns:dc="http://purl.org/dc/elements/1.1/" xmlns:cc="http://creativecommons.org/ns#" xmlns:rdf="http://www.w3.org/1999/02/22-rdf-syntax-ns#">
   <cc:Work>
    <dc:type rdf:resource="http://purl.org/dc/dcmitype/StillImage"/>
    <dc:date>2024-08-27T19:42:51.399730</dc:date>
    <dc:format>image/svg+xml</dc:format>
    <dc:creator>
     <cc:Agent>
      <dc:title>Matplotlib v3.9.2, https://matplotlib.org/</dc:title>
     </cc:Agent>
    </dc:creator>
   </cc:Work>
  </rdf:RDF>
 </metadata>
 <defs>
  <style type="text/css">*{stroke-linejoin: round; stroke-linecap: butt}</style>
 </defs>
 <g id="figure_1">
  <g id="patch_1">
   <path d="M 0 345.6 
L 460.8 345.6 
L 460.8 0 
L 0 0 
z
" style="fill: #ffffff"/>
  </g>
  <g id="axes_1">
   <g id="patch_2">
    <path d="M 57.6 307.584 
L 414.72 307.584 
L 414.72 41.472 
L 57.6 41.472 
z
" style="fill: #ffffff"/>
   </g>
   <g id="matplotlib.axis_1">
    <g id="xtick_1">
     <g id="line2d_1">
      <defs>
       <path id="m0688a222b4" d="M 0 0 
L 0 3.5 
" style="stroke: #000000; stroke-width: 0.8"/>
      </defs>
      <g>
       <use xlink:href="#m0688a222b4" x="73.832727" y="307.584" style="stroke: #000000; stroke-width: 0.8"/>
      </g>
     </g>
     <g id="text_1">
      <!-- 19:05 -->
      <g transform="translate(59.423352 322.182437) scale(0.1 -0.1)">
       <defs>
        <path id="DejaVuSans-31" d="M 794 531 
L 1825 531 
L 1825 4091 
L 703 3866 
L 703 4441 
L 1819 4666 
L 2450 4666 
L 2450 531 
L 3481 531 
L 3481 0 
L 794 0 
L 794 531 
z
" transform="scale(0.015625)"/>
        <path id="DejaVuSans-39" d="M 703 97 
L 703 672 
Q 941 559 1184 500 
Q 1428 441 1663 441 
Q 2288 441 2617 861 
Q 2947 1281 2994 2138 
Q 2813 1869 2534 1725 
Q 2256 1581 1919 1581 
Q 1219 1581 811 2004 
Q 403 2428 403 3163 
Q 403 3881 828 4315 
Q 1253 4750 1959 4750 
Q 2769 4750 3195 4129 
Q 3622 3509 3622 2328 
Q 3622 1225 3098 567 
Q 2575 -91 1691 -91 
Q 1453 -91 1209 -44 
Q 966 3 703 97 
z
M 1959 2075 
Q 2384 2075 2632 2365 
Q 2881 2656 2881 3163 
Q 2881 3666 2632 3958 
Q 2384 4250 1959 4250 
Q 1534 4250 1286 3958 
Q 1038 3666 1038 3163 
Q 1038 2656 1286 2365 
Q 1534 2075 1959 2075 
z
" transform="scale(0.015625)"/>
        <path id="DejaVuSans-3a" d="M 750 794 
L 1409 794 
L 1409 0 
L 750 0 
L 750 794 
z
M 750 3309 
L 1409 3309 
L 1409 2516 
L 750 2516 
L 750 3309 
z
" transform="scale(0.015625)"/>
        <path id="DejaVuSans-30" d="M 2034 4250 
Q 1547 4250 1301 3770 
Q 1056 3291 1056 2328 
Q 1056 1369 1301 889 
Q 1547 409 2034 409 
Q 2525 409 2770 889 
Q 3016 1369 3016 2328 
Q 3016 3291 2770 3770 
Q 2525 4250 2034 4250 
z
M 2034 4750 
Q 2819 4750 3233 4129 
Q 3647 3509 3647 2328 
Q 3647 1150 3233 529 
Q 2819 -91 2034 -91 
Q 1250 -91 836 529 
Q 422 1150 422 2328 
Q 422 3509 836 4129 
Q 1250 4750 2034 4750 
z
" transform="scale(0.015625)"/>
        <path id="DejaVuSans-35" d="M 691 4666 
L 3169 4666 
L 3169 4134 
L 1269 4134 
L 1269 2991 
Q 1406 3038 1543 3061 
Q 1681 3084 1819 3084 
Q 2600 3084 3056 2656 
Q 3513 2228 3513 1497 
Q 3513 744 3044 326 
Q 2575 -91 1722 -91 
Q 1428 -91 1123 -41 
Q 819 9 494 109 
L 494 744 
Q 775 591 1075 516 
Q 1375 441 1709 441 
Q 2250 441 2565 725 
Q 2881 1009 2881 1497 
Q 2881 1984 2565 2268 
Q 2250 2553 1709 2553 
Q 1456 2553 1204 2497 
Q 953 2441 691 2322 
L 691 4666 
z
" transform="scale(0.015625)"/>
       </defs>
       <use xlink:href="#DejaVuSans-31"/>
       <use xlink:href="#DejaVuSans-39" x="63.623047"/>
       <use xlink:href="#DejaVuSans-3a" x="127.246094"/>
       <use xlink:href="#DejaVuSans-30" x="160.9375"/>
       <use xlink:href="#DejaVuSans-35" x="224.560547"/>
      </g>
     </g>
    </g>
    <g id="xtick_2">
     <g id="line2d_2">
      <g>
       <use xlink:href="#m0688a222b4" x="114.64126" y="307.584" style="stroke: #000000; stroke-width: 0.8"/>
      </g>
     </g>
     <g id="text_2">
      <!-- 22:05 -->
      <g transform="translate(100.231885 322.182437) scale(0.1 -0.1)">
       <defs>
        <path id="DejaVuSans-32" d="M 1228 531 
L 3431 531 
L 3431 0 
L 469 0 
L 469 531 
Q 828 903 1448 1529 
Q 2069 2156 2228 2338 
Q 2531 2678 2651 2914 
Q 2772 3150 2772 3378 
Q 2772 3750 2511 3984 
Q 2250 4219 1831 4219 
Q 1534 4219 1204 4116 
Q 875 4013 500 3803 
L 500 4441 
Q 881 4594 1212 4672 
Q 1544 4750 1819 4750 
Q 2544 4750 2975 4387 
Q 3406 4025 3406 3419 
Q 3406 3131 3298 2873 
Q 3191 2616 2906 2266 
Q 2828 2175 2409 1742 
Q 1991 1309 1228 531 
z
" transform="scale(0.015625)"/>
       </defs>
       <use xlink:href="#DejaVuSans-32"/>
       <use xlink:href="#DejaVuSans-32" x="63.623047"/>
       <use xlink:href="#DejaVuSans-3a" x="127.246094"/>
       <use xlink:href="#DejaVuSans-30" x="160.9375"/>
       <use xlink:href="#DejaVuSans-35" x="224.560547"/>
      </g>
     </g>
    </g>
    <g id="xtick_3">
     <g id="line2d_3">
      <g>
       <use xlink:href="#m0688a222b4" x="155.449792" y="307.584" style="stroke: #000000; stroke-width: 0.8"/>
      </g>
     </g>
     <g id="text_3">
      <!-- 01:05 -->
      <g transform="translate(141.040417 322.182437) scale(0.1 -0.1)">
       <use xlink:href="#DejaVuSans-30"/>
       <use xlink:href="#DejaVuSans-31" x="63.623047"/>
       <use xlink:href="#DejaVuSans-3a" x="127.246094"/>
       <use xlink:href="#DejaVuSans-30" x="160.9375"/>
       <use xlink:href="#DejaVuSans-35" x="224.560547"/>
      </g>
     </g>
    </g>
    <g id="xtick_4">
     <g id="line2d_4">
      <g>
       <use xlink:href="#m0688a222b4" x="196.258324" y="307.584" style="stroke: #000000; stroke-width: 0.8"/>
      </g>
     </g>
     <g id="text_4">
      <!-- 04:05 -->
      <g transform="translate(181.848949 322.182437) scale(0.1 -0.1)">
       <defs>
        <path id="DejaVuSans-34" d="M 2419 4116 
L 825 1625 
L 2419 1625 
L 2419 4116 
z
M 2253 4666 
L 3047 4666 
L 3047 1625 
L 3713 1625 
L 3713 1100 
L 3047 1100 
L 3047 0 
L 2419 0 
L 2419 1100 
L 313 1100 
L 313 1709 
L 2253 4666 
z
" transform="scale(0.015625)"/>
       </defs>
       <use xlink:href="#DejaVuSans-30"/>
       <use xlink:href="#DejaVuSans-34" x="63.623047"/>
       <use xlink:href="#DejaVuSans-3a" x="127.246094"/>
       <use xlink:href="#DejaVuSans-30" x="160.9375"/>
       <use xlink:href="#DejaVuSans-35" x="224.560547"/>
      </g>
     </g>
    </g>
    <g id="xtick_5">
     <g id="line2d_5">
      <g>
       <use xlink:href="#m0688a222b4" x="237.066856" y="307.584" style="stroke: #000000; stroke-width: 0.8"/>
      </g>
     </g>
     <g id="text_5">
      <!-- 07:05 -->
      <g transform="translate(222.657481 322.182437) scale(0.1 -0.1)">
       <defs>
        <path id="DejaVuSans-37" d="M 525 4666 
L 3525 4666 
L 3525 4397 
L 1831 0 
L 1172 0 
L 2766 4134 
L 525 4134 
L 525 4666 
z
" transform="scale(0.015625)"/>
       </defs>
       <use xlink:href="#DejaVuSans-30"/>
       <use xlink:href="#DejaVuSans-37" x="63.623047"/>
       <use xlink:href="#DejaVuSans-3a" x="127.246094"/>
       <use xlink:href="#DejaVuSans-30" x="160.9375"/>
       <use xlink:href="#DejaVuSans-35" x="224.560547"/>
      </g>
     </g>
    </g>
    <g id="xtick_6">
     <g id="line2d_6">
      <g>
       <use xlink:href="#m0688a222b4" x="277.875389" y="307.584" style="stroke: #000000; stroke-width: 0.8"/>
      </g>
     </g>
     <g id="text_6">
      <!-- 10:05 -->
      <g transform="translate(263.466014 322.182437) scale(0.1 -0.1)">
       <use xlink:href="#DejaVuSans-31"/>
       <use xlink:href="#DejaVuSans-30" x="63.623047"/>
       <use xlink:href="#DejaVuSans-3a" x="127.246094"/>
       <use xlink:href="#DejaVuSans-30" x="160.9375"/>
       <use xlink:href="#DejaVuSans-35" x="224.560547"/>
      </g>
     </g>
    </g>
    <g id="xtick_7">
     <g id="line2d_7">
      <g>
       <use xlink:href="#m0688a222b4" x="318.683921" y="307.584" style="stroke: #000000; stroke-width: 0.8"/>
      </g>
     </g>
     <g id="text_7">
      <!-- 13:05 -->
      <g transform="translate(304.274546 322.182437) scale(0.1 -0.1)">
       <defs>
        <path id="DejaVuSans-33" d="M 2597 2516 
Q 3050 2419 3304 2112 
Q 3559 1806 3559 1356 
Q 3559 666 3084 287 
Q 2609 -91 1734 -91 
Q 1441 -91 1130 -33 
Q 819 25 488 141 
L 488 750 
Q 750 597 1062 519 
Q 1375 441 1716 441 
Q 2309 441 2620 675 
Q 2931 909 2931 1356 
Q 2931 1769 2642 2001 
Q 2353 2234 1838 2234 
L 1294 2234 
L 1294 2753 
L 1863 2753 
Q 2328 2753 2575 2939 
Q 2822 3125 2822 3475 
Q 2822 3834 2567 4026 
Q 2313 4219 1838 4219 
Q 1578 4219 1281 4162 
Q 984 4106 628 3988 
L 628 4550 
Q 988 4650 1302 4700 
Q 1616 4750 1894 4750 
Q 2613 4750 3031 4423 
Q 3450 4097 3450 3541 
Q 3450 3153 3228 2886 
Q 3006 2619 2597 2516 
z
" transform="scale(0.015625)"/>
       </defs>
       <use xlink:href="#DejaVuSans-31"/>
       <use xlink:href="#DejaVuSans-33" x="63.623047"/>
       <use xlink:href="#DejaVuSans-3a" x="127.246094"/>
       <use xlink:href="#DejaVuSans-30" x="160.9375"/>
       <use xlink:href="#DejaVuSans-35" x="224.560547"/>
      </g>
     </g>
    </g>
    <g id="xtick_8">
     <g id="line2d_8">
      <g>
       <use xlink:href="#m0688a222b4" x="359.492453" y="307.584" style="stroke: #000000; stroke-width: 0.8"/>
      </g>
     </g>
     <g id="text_8">
      <!-- 16:05 -->
      <g transform="translate(345.083078 322.182437) scale(0.1 -0.1)">
       <defs>
        <path id="DejaVuSans-36" d="M 2113 2584 
Q 1688 2584 1439 2293 
Q 1191 2003 1191 1497 
Q 1191 994 1439 701 
Q 1688 409 2113 409 
Q 2538 409 2786 701 
Q 3034 994 3034 1497 
Q 3034 2003 2786 2293 
Q 2538 2584 2113 2584 
z
M 3366 4563 
L 3366 3988 
Q 3128 4100 2886 4159 
Q 2644 4219 2406 4219 
Q 1781 4219 1451 3797 
Q 1122 3375 1075 2522 
Q 1259 2794 1537 2939 
Q 1816 3084 2150 3084 
Q 2853 3084 3261 2657 
Q 3669 2231 3669 1497 
Q 3669 778 3244 343 
Q 2819 -91 2113 -91 
Q 1303 -91 875 529 
Q 447 1150 447 2328 
Q 447 3434 972 4092 
Q 1497 4750 2381 4750 
Q 2619 4750 2861 4703 
Q 3103 4656 3366 4563 
z
" transform="scale(0.015625)"/>
       </defs>
       <use xlink:href="#DejaVuSans-31"/>
       <use xlink:href="#DejaVuSans-36" x="63.623047"/>
       <use xlink:href="#DejaVuSans-3a" x="127.246094"/>
       <use xlink:href="#DejaVuSans-30" x="160.9375"/>
       <use xlink:href="#DejaVuSans-35" x="224.560547"/>
      </g>
     </g>
    </g>
    <g id="text_9">
     <!-- Time -->
     <g transform="translate(223.926406 335.860562) scale(0.1 -0.1)">
      <defs>
       <path id="DejaVuSans-54" d="M -19 4666 
L 3928 4666 
L 3928 4134 
L 2272 4134 
L 2272 0 
L 1638 0 
L 1638 4134 
L -19 4134 
L -19 4666 
z
" transform="scale(0.015625)"/>
       <path id="DejaVuSans-69" d="M 603 3500 
L 1178 3500 
L 1178 0 
L 603 0 
L 603 3500 
z
M 603 4863 
L 1178 4863 
L 1178 4134 
L 603 4134 
L 603 4863 
z
" transform="scale(0.015625)"/>
       <path id="DejaVuSans-6d" d="M 3328 2828 
Q 3544 3216 3844 3400 
Q 4144 3584 4550 3584 
Q 5097 3584 5394 3201 
Q 5691 2819 5691 2113 
L 5691 0 
L 5113 0 
L 5113 2094 
Q 5113 2597 4934 2840 
Q 4756 3084 4391 3084 
Q 3944 3084 3684 2787 
Q 3425 2491 3425 1978 
L 3425 0 
L 2847 0 
L 2847 2094 
Q 2847 2600 2669 2842 
Q 2491 3084 2119 3084 
Q 1678 3084 1418 2786 
Q 1159 2488 1159 1978 
L 1159 0 
L 581 0 
L 581 3500 
L 1159 3500 
L 1159 2956 
Q 1356 3278 1631 3431 
Q 1906 3584 2284 3584 
Q 2666 3584 2933 3390 
Q 3200 3197 3328 2828 
z
" transform="scale(0.015625)"/>
       <path id="DejaVuSans-65" d="M 3597 1894 
L 3597 1613 
L 953 1613 
Q 991 1019 1311 708 
Q 1631 397 2203 397 
Q 2534 397 2845 478 
Q 3156 559 3463 722 
L 3463 178 
Q 3153 47 2828 -22 
Q 2503 -91 2169 -91 
Q 1331 -91 842 396 
Q 353 884 353 1716 
Q 353 2575 817 3079 
Q 1281 3584 2069 3584 
Q 2775 3584 3186 3129 
Q 3597 2675 3597 1894 
z
M 3022 2063 
Q 3016 2534 2758 2815 
Q 2500 3097 2075 3097 
Q 1594 3097 1305 2825 
Q 1016 2553 972 2059 
L 3022 2063 
z
" transform="scale(0.015625)"/>
      </defs>
      <use xlink:href="#DejaVuSans-54"/>
      <use xlink:href="#DejaVuSans-69" x="57.958984"/>
      <use xlink:href="#DejaVuSans-6d" x="85.742188"/>
      <use xlink:href="#DejaVuSans-65" x="183.154297"/>
     </g>
    </g>
   </g>
   <g id="matplotlib.axis_2">
    <g id="ytick_1">
     <g id="line2d_9">
      <defs>
       <path id="mc93d9536e5" d="M 0 0 
L -3.5 0 
" style="stroke: #000000; stroke-width: 0.8"/>
      </defs>
      <g>
       <use xlink:href="#mc93d9536e5" x="57.6" y="267.858647" style="stroke: #000000; stroke-width: 0.8"/>
      </g>
     </g>
     <g id="text_10">
      <!-- 5 -->
      <g transform="translate(44.2375 271.657866) scale(0.1 -0.1)">
       <use xlink:href="#DejaVuSans-35"/>
      </g>
     </g>
    </g>
    <g id="ytick_2">
     <g id="line2d_10">
      <g>
       <use xlink:href="#mc93d9536e5" x="57.6" y="213.470158" style="stroke: #000000; stroke-width: 0.8"/>
      </g>
     </g>
     <g id="text_11">
      <!-- 10 -->
      <g transform="translate(37.875 217.269377) scale(0.1 -0.1)">
       <use xlink:href="#DejaVuSans-31"/>
       <use xlink:href="#DejaVuSans-30" x="63.623047"/>
      </g>
     </g>
    </g>
    <g id="ytick_3">
     <g id="line2d_11">
      <g>
       <use xlink:href="#mc93d9536e5" x="57.6" y="159.081669" style="stroke: #000000; stroke-width: 0.8"/>
      </g>
     </g>
     <g id="text_12">
      <!-- 15 -->
      <g transform="translate(37.875 162.880888) scale(0.1 -0.1)">
       <use xlink:href="#DejaVuSans-31"/>
       <use xlink:href="#DejaVuSans-35" x="63.623047"/>
      </g>
     </g>
    </g>
    <g id="ytick_4">
     <g id="line2d_12">
      <g>
       <use xlink:href="#mc93d9536e5" x="57.6" y="104.69318" style="stroke: #000000; stroke-width: 0.8"/>
      </g>
     </g>
     <g id="text_13">
      <!-- 20 -->
      <g transform="translate(37.875 108.492399) scale(0.1 -0.1)">
       <use xlink:href="#DejaVuSans-32"/>
       <use xlink:href="#DejaVuSans-30" x="63.623047"/>
      </g>
     </g>
    </g>
    <g id="ytick_5">
     <g id="line2d_13">
      <g>
       <use xlink:href="#mc93d9536e5" x="57.6" y="50.304691" style="stroke: #000000; stroke-width: 0.8"/>
      </g>
     </g>
     <g id="text_14">
      <!-- 25 -->
      <g transform="translate(37.875 54.103909) scale(0.1 -0.1)">
       <use xlink:href="#DejaVuSans-32"/>
       <use xlink:href="#DejaVuSans-35" x="63.623047"/>
      </g>
     </g>
    </g>
    <g id="text_15">
     <!-- CPU Usage Percent(%) -->
     <g transform="translate(31.795312 230.910812) rotate(-90) scale(0.1 -0.1)">
      <defs>
       <path id="DejaVuSans-43" d="M 4122 4306 
L 4122 3641 
Q 3803 3938 3442 4084 
Q 3081 4231 2675 4231 
Q 1875 4231 1450 3742 
Q 1025 3253 1025 2328 
Q 1025 1406 1450 917 
Q 1875 428 2675 428 
Q 3081 428 3442 575 
Q 3803 722 4122 1019 
L 4122 359 
Q 3791 134 3420 21 
Q 3050 -91 2638 -91 
Q 1578 -91 968 557 
Q 359 1206 359 2328 
Q 359 3453 968 4101 
Q 1578 4750 2638 4750 
Q 3056 4750 3426 4639 
Q 3797 4528 4122 4306 
z
" transform="scale(0.015625)"/>
       <path id="DejaVuSans-50" d="M 1259 4147 
L 1259 2394 
L 2053 2394 
Q 2494 2394 2734 2622 
Q 2975 2850 2975 3272 
Q 2975 3691 2734 3919 
Q 2494 4147 2053 4147 
L 1259 4147 
z
M 628 4666 
L 2053 4666 
Q 2838 4666 3239 4311 
Q 3641 3956 3641 3272 
Q 3641 2581 3239 2228 
Q 2838 1875 2053 1875 
L 1259 1875 
L 1259 0 
L 628 0 
L 628 4666 
z
" transform="scale(0.015625)"/>
       <path id="DejaVuSans-55" d="M 556 4666 
L 1191 4666 
L 1191 1831 
Q 1191 1081 1462 751 
Q 1734 422 2344 422 
Q 2950 422 3222 751 
Q 3494 1081 3494 1831 
L 3494 4666 
L 4128 4666 
L 4128 1753 
Q 4128 841 3676 375 
Q 3225 -91 2344 -91 
Q 1459 -91 1007 375 
Q 556 841 556 1753 
L 556 4666 
z
" transform="scale(0.015625)"/>
       <path id="DejaVuSans-20" transform="scale(0.015625)"/>
       <path id="DejaVuSans-73" d="M 2834 3397 
L 2834 2853 
Q 2591 2978 2328 3040 
Q 2066 3103 1784 3103 
Q 1356 3103 1142 2972 
Q 928 2841 928 2578 
Q 928 2378 1081 2264 
Q 1234 2150 1697 2047 
L 1894 2003 
Q 2506 1872 2764 1633 
Q 3022 1394 3022 966 
Q 3022 478 2636 193 
Q 2250 -91 1575 -91 
Q 1294 -91 989 -36 
Q 684 19 347 128 
L 347 722 
Q 666 556 975 473 
Q 1284 391 1588 391 
Q 1994 391 2212 530 
Q 2431 669 2431 922 
Q 2431 1156 2273 1281 
Q 2116 1406 1581 1522 
L 1381 1569 
Q 847 1681 609 1914 
Q 372 2147 372 2553 
Q 372 3047 722 3315 
Q 1072 3584 1716 3584 
Q 2034 3584 2315 3537 
Q 2597 3491 2834 3397 
z
" transform="scale(0.015625)"/>
       <path id="DejaVuSans-61" d="M 2194 1759 
Q 1497 1759 1228 1600 
Q 959 1441 959 1056 
Q 959 750 1161 570 
Q 1363 391 1709 391 
Q 2188 391 2477 730 
Q 2766 1069 2766 1631 
L 2766 1759 
L 2194 1759 
z
M 3341 1997 
L 3341 0 
L 2766 0 
L 2766 531 
Q 2569 213 2275 61 
Q 1981 -91 1556 -91 
Q 1019 -91 701 211 
Q 384 513 384 1019 
Q 384 1609 779 1909 
Q 1175 2209 1959 2209 
L 2766 2209 
L 2766 2266 
Q 2766 2663 2505 2880 
Q 2244 3097 1772 3097 
Q 1472 3097 1187 3025 
Q 903 2953 641 2809 
L 641 3341 
Q 956 3463 1253 3523 
Q 1550 3584 1831 3584 
Q 2591 3584 2966 3190 
Q 3341 2797 3341 1997 
z
" transform="scale(0.015625)"/>
       <path id="DejaVuSans-67" d="M 2906 1791 
Q 2906 2416 2648 2759 
Q 2391 3103 1925 3103 
Q 1463 3103 1205 2759 
Q 947 2416 947 1791 
Q 947 1169 1205 825 
Q 1463 481 1925 481 
Q 2391 481 2648 825 
Q 2906 1169 2906 1791 
z
M 3481 434 
Q 3481 -459 3084 -895 
Q 2688 -1331 1869 -1331 
Q 1566 -1331 1297 -1286 
Q 1028 -1241 775 -1147 
L 775 -588 
Q 1028 -725 1275 -790 
Q 1522 -856 1778 -856 
Q 2344 -856 2625 -561 
Q 2906 -266 2906 331 
L 2906 616 
Q 2728 306 2450 153 
Q 2172 0 1784 0 
Q 1141 0 747 490 
Q 353 981 353 1791 
Q 353 2603 747 3093 
Q 1141 3584 1784 3584 
Q 2172 3584 2450 3431 
Q 2728 3278 2906 2969 
L 2906 3500 
L 3481 3500 
L 3481 434 
z
" transform="scale(0.015625)"/>
       <path id="DejaVuSans-72" d="M 2631 2963 
Q 2534 3019 2420 3045 
Q 2306 3072 2169 3072 
Q 1681 3072 1420 2755 
Q 1159 2438 1159 1844 
L 1159 0 
L 581 0 
L 581 3500 
L 1159 3500 
L 1159 2956 
Q 1341 3275 1631 3429 
Q 1922 3584 2338 3584 
Q 2397 3584 2469 3576 
Q 2541 3569 2628 3553 
L 2631 2963 
z
" transform="scale(0.015625)"/>
       <path id="DejaVuSans-63" d="M 3122 3366 
L 3122 2828 
Q 2878 2963 2633 3030 
Q 2388 3097 2138 3097 
Q 1578 3097 1268 2742 
Q 959 2388 959 1747 
Q 959 1106 1268 751 
Q 1578 397 2138 397 
Q 2388 397 2633 464 
Q 2878 531 3122 666 
L 3122 134 
Q 2881 22 2623 -34 
Q 2366 -91 2075 -91 
Q 1284 -91 818 406 
Q 353 903 353 1747 
Q 353 2603 823 3093 
Q 1294 3584 2113 3584 
Q 2378 3584 2631 3529 
Q 2884 3475 3122 3366 
z
" transform="scale(0.015625)"/>
       <path id="DejaVuSans-6e" d="M 3513 2113 
L 3513 0 
L 2938 0 
L 2938 2094 
Q 2938 2591 2744 2837 
Q 2550 3084 2163 3084 
Q 1697 3084 1428 2787 
Q 1159 2491 1159 1978 
L 1159 0 
L 581 0 
L 581 3500 
L 1159 3500 
L 1159 2956 
Q 1366 3272 1645 3428 
Q 1925 3584 2291 3584 
Q 2894 3584 3203 3211 
Q 3513 2838 3513 2113 
z
" transform="scale(0.015625)"/>
       <path id="DejaVuSans-74" d="M 1172 4494 
L 1172 3500 
L 2356 3500 
L 2356 3053 
L 1172 3053 
L 1172 1153 
Q 1172 725 1289 603 
Q 1406 481 1766 481 
L 2356 481 
L 2356 0 
L 1766 0 
Q 1100 0 847 248 
Q 594 497 594 1153 
L 594 3053 
L 172 3053 
L 172 3500 
L 594 3500 
L 594 4494 
L 1172 4494 
z
" transform="scale(0.015625)"/>
       <path id="DejaVuSans-28" d="M 1984 4856 
Q 1566 4138 1362 3434 
Q 1159 2731 1159 2009 
Q 1159 1288 1364 580 
Q 1569 -128 1984 -844 
L 1484 -844 
Q 1016 -109 783 600 
Q 550 1309 550 2009 
Q 550 2706 781 3412 
Q 1013 4119 1484 4856 
L 1984 4856 
z
" transform="scale(0.015625)"/>
       <path id="DejaVuSans-25" d="M 4653 2053 
Q 4381 2053 4226 1822 
Q 4072 1591 4072 1178 
Q 4072 772 4226 539 
Q 4381 306 4653 306 
Q 4919 306 5073 539 
Q 5228 772 5228 1178 
Q 5228 1588 5073 1820 
Q 4919 2053 4653 2053 
z
M 4653 2450 
Q 5147 2450 5437 2106 
Q 5728 1763 5728 1178 
Q 5728 594 5436 251 
Q 5144 -91 4653 -91 
Q 4153 -91 3862 251 
Q 3572 594 3572 1178 
Q 3572 1766 3864 2108 
Q 4156 2450 4653 2450 
z
M 1428 4353 
Q 1159 4353 1004 4120 
Q 850 3888 850 3481 
Q 850 3069 1003 2837 
Q 1156 2606 1428 2606 
Q 1700 2606 1854 2837 
Q 2009 3069 2009 3481 
Q 2009 3884 1853 4118 
Q 1697 4353 1428 4353 
z
M 4250 4750 
L 4750 4750 
L 1831 -91 
L 1331 -91 
L 4250 4750 
z
M 1428 4750 
Q 1922 4750 2215 4408 
Q 2509 4066 2509 3481 
Q 2509 2891 2217 2550 
Q 1925 2209 1428 2209 
Q 931 2209 642 2551 
Q 353 2894 353 3481 
Q 353 4063 643 4406 
Q 934 4750 1428 4750 
z
" transform="scale(0.015625)"/>
       <path id="DejaVuSans-29" d="M 513 4856 
L 1013 4856 
Q 1481 4119 1714 3412 
Q 1947 2706 1947 2009 
Q 1947 1309 1714 600 
Q 1481 -109 1013 -844 
L 513 -844 
Q 928 -128 1133 580 
Q 1338 1288 1338 2009 
Q 1338 2731 1133 3434 
Q 928 4138 513 4856 
z
" transform="scale(0.015625)"/>
      </defs>
      <use xlink:href="#DejaVuSans-43"/>
      <use xlink:href="#DejaVuSans-50" x="69.824219"/>
      <use xlink:href="#DejaVuSans-55" x="130.126953"/>
      <use xlink:href="#DejaVuSans-20" x="203.320312"/>
      <use xlink:href="#DejaVuSans-55" x="235.107422"/>
      <use xlink:href="#DejaVuSans-73" x="308.300781"/>
      <use xlink:href="#DejaVuSans-61" x="360.400391"/>
      <use xlink:href="#DejaVuSans-67" x="421.679688"/>
      <use xlink:href="#DejaVuSans-65" x="485.15625"/>
      <use xlink:href="#DejaVuSans-20" x="546.679688"/>
      <use xlink:href="#DejaVuSans-50" x="578.466797"/>
      <use xlink:href="#DejaVuSans-65" x="635.144531"/>
      <use xlink:href="#DejaVuSans-72" x="696.667969"/>
      <use xlink:href="#DejaVuSans-63" x="735.53125"/>
      <use xlink:href="#DejaVuSans-65" x="790.511719"/>
      <use xlink:href="#DejaVuSans-6e" x="852.035156"/>
      <use xlink:href="#DejaVuSans-74" x="915.414062"/>
      <use xlink:href="#DejaVuSans-28" x="954.623047"/>
      <use xlink:href="#DejaVuSans-25" x="993.636719"/>
      <use xlink:href="#DejaVuSans-29" x="1088.65625"/>
     </g>
    </g>
   </g>
   <g id="line2d_14">
    <path d="M 73.832727 209.119079 
L 74.059441 194.978072 
L 74.286155 203.68023 
L 74.512869 200.416921 
L 74.739584 199.329151 
L 74.966298 203.68023 
L 75.193012 192.802532 
L 75.419726 190.626993 
L 75.873154 199.329151 
L 76.099868 203.68023 
L 76.326582 204.768 
L 76.553296 204.768 
L 77.006724 210.206849 
L 77.233438 208.031309 
L 77.460152 209.119079 
L 77.686866 199.329151 
L 78.140295 199.329151 
L 78.593723 197.153612 
L 79.273865 179.749295 
L 79.500579 177.573755 
L 79.954007 191.714763 
L 80.180721 190.626993 
L 80.634149 206.94354 
L 80.860863 206.94354 
L 81.087577 216.29836 
L 81.314292 217.930014 
L 81.541006 210.206849 
L 81.76772 212.382388 
L 82.221148 206.94354 
L 82.447862 210.206849 
L 82.674576 203.68023 
L 83.128004 211.294619 
L 83.354718 205.85577 
L 83.581432 213.796489 
L 84.03486 204.768 
L 84.261574 205.85577 
L 84.488288 202.59246 
L 85.395145 177.573755 
L 85.621859 177.573755 
L 85.848573 174.310446 
L 86.075287 173.222676 
L 86.302001 171.047137 
L 86.755429 143.852892 
L 87.208857 124.273036 
L 87.435571 128.624115 
L 87.662285 130.799655 
L 88.342428 142.765122 
L 88.569142 140.589583 
L 89.02257 126.448576 
L 89.249284 123.185266 
L 89.475998 126.448576 
L 89.702712 142.765122 
L 89.929426 143.852892 
L 90.15614 143.852892 
L 90.382854 147.116201 
L 90.609568 123.185266 
L 90.836282 121.009727 
L 91.062996 112.307568 
L 91.289711 111.219799 
L 91.516425 116.658647 
L 91.743139 112.307568 
L 91.969853 113.395338 
L 92.196567 111.219799 
L 92.423281 100.342101 
L 92.649995 101.429871 
L 93.103423 112.307568 
L 93.330137 128.624115 
L 93.783565 132.975194 
L 94.010279 132.975194 
L 94.236993 135.150734 
L 94.690422 150.379511 
L 94.917136 159.081669 
L 95.14385 162.344978 
L 95.370564 167.783827 
L 96.050706 138.414043 
L 96.27742 125.360806 
L 96.504134 129.711885 
L 96.730848 124.273036 
L 97.184276 134.062964 
L 97.41099 122.097496 
L 97.637704 121.009727 
L 97.864418 114.483108 
L 98.091133 114.483108 
L 98.317847 118.834187 
L 98.544561 121.009727 
L 98.771275 134.062964 
L 98.997989 136.238504 
L 99.224703 139.501813 
L 99.451417 138.414043 
L 100.358273 122.097496 
L 100.584987 128.624115 
L 100.811701 122.097496 
L 101.038415 123.185266 
L 101.26513 122.097496 
L 101.491844 119.921957 
L 101.945272 130.799655 
L 102.171986 139.501813 
L 102.3987 140.589583 
L 102.625414 140.589583 
L 102.852128 143.852892 
L 103.078842 142.765122 
L 103.305556 143.852892 
L 103.53227 143.852892 
L 103.758984 134.062964 
L 103.985698 137.326273 
L 104.212412 148.203971 
L 104.665841 155.81836 
L 105.119269 142.765122 
L 105.345983 144.940662 
L 106.026125 168.871597 
L 106.252839 162.344978 
L 106.479553 160.169439 
L 106.706267 153.64282 
L 106.932981 137.326273 
L 107.159695 137.326273 
L 107.386409 134.062964 
L 107.613123 139.501813 
L 107.839837 140.589583 
L 108.51998 159.081669 
L 108.746694 177.573755 
L 108.973408 185.188144 
L 109.200122 184.100374 
L 109.426836 185.188144 
L 109.65355 173.222676 
L 110.106978 184.100374 
L 110.333692 179.749295 
L 110.560406 177.573755 
L 110.78712 168.871597 
L 111.013834 150.379511 
L 111.240549 151.467281 
L 111.467263 153.64282 
L 111.693977 152.55505 
L 111.920691 166.696058 
L 112.147405 165.608288 
L 112.374119 163.432748 
L 112.600833 162.344978 
L 112.827547 156.906129 
L 113.054261 160.169439 
L 113.507689 178.661525 
L 113.734403 188.451453 
L 113.961117 183.012604 
L 114.187831 183.012604 
L 114.414545 173.222676 
L 114.64126 169.959367 
L 114.867974 173.222676 
L 115.094688 166.696058 
L 115.321402 166.696058 
L 115.548116 165.608288 
L 115.77483 167.783827 
L 116.228258 184.100374 
L 116.454972 183.012604 
L 116.681686 176.485986 
L 116.9084 174.310446 
L 117.135114 164.520518 
L 117.361828 168.871597 
L 117.588542 181.924835 
L 117.815256 181.924835 
L 118.041971 189.539223 
L 118.268685 189.539223 
L 118.495399 188.451453 
L 118.722113 190.626993 
L 118.948827 191.714763 
L 119.175541 197.153612 
L 119.402255 192.802532 
L 119.628969 192.802532 
L 120.082397 183.012604 
L 120.535825 192.802532 
L 120.762539 196.065842 
L 121.669396 187.363683 
L 121.89611 187.363683 
L 122.122824 184.100374 
L 122.349538 186.275914 
L 122.576252 196.065842 
L 122.802966 193.890302 
L 123.02968 194.978072 
L 123.256394 200.416921 
L 123.483108 192.802532 
L 123.709822 194.978072 
L 123.936536 193.890302 
L 124.16325 184.100374 
L 124.389964 188.451453 
L 124.616679 186.275914 
L 125.070107 193.890302 
L 125.296821 192.802532 
L 125.523535 196.065842 
L 125.750249 189.539223 
L 125.976963 188.451453 
L 126.203677 184.100374 
L 126.430391 192.802532 
L 126.657105 192.802532 
L 127.110533 202.59246 
L 127.337247 199.329151 
L 127.563961 208.031309 
L 128.01739 205.85577 
L 128.244104 205.85577 
L 128.470818 204.768 
L 128.697532 204.768 
L 128.924246 206.94354 
L 129.15096 213.470158 
L 129.377674 204.768 
L 129.604388 203.68023 
L 129.831102 201.504691 
L 130.057816 194.978072 
L 130.28453 193.890302 
L 130.511244 201.504691 
L 130.737958 203.68023 
L 130.964672 200.416921 
L 131.191386 213.470158 
L 131.418101 204.768 
L 131.644815 204.768 
L 131.871529 201.504691 
L 132.098243 194.978072 
L 132.324957 203.68023 
L 132.551671 204.768 
L 132.778385 217.277353 
L 133.005099 216.951022 
L 133.231813 203.68023 
L 133.458527 201.504691 
L 133.685241 194.978072 
L 133.911955 192.802532 
L 134.138669 203.68023 
L 134.365383 205.85577 
L 134.592098 206.94354 
L 134.818812 209.119079 
L 135.045526 212.382388 
L 135.27224 210.206849 
L 135.498954 212.382388 
L 135.725668 223.912748 
L 135.952382 218.909007 
L 136.40581 236.422101 
L 136.632524 231.309583 
L 136.859238 239.467856 
L 137.085952 238.815194 
L 137.53938 241.752173 
L 137.766094 245.668144 
L 137.992809 245.341813 
L 138.219523 239.141525 
L 138.446237 246.973468 
L 138.672951 246.320806 
L 139.126379 252.738647 
L 139.579807 251.977209 
L 139.806521 253.391309 
L 140.033235 256.763396 
L 140.486663 245.559367 
L 140.713377 250.671885 
L 141.39352 229.786705 
L 141.620234 234.790446 
L 141.846948 233.593899 
L 142.073662 239.902964 
L 142.300376 242.404835 
L 142.52709 237.401094 
L 142.753804 241.425842 
L 142.980518 237.074763 
L 143.207232 239.141525 
L 143.433946 246.320806 
L 143.66066 240.338072 
L 143.887374 246.429583 
L 144.114088 245.124259 
L 144.340802 245.559367 
L 144.567517 248.061237 
L 144.794231 240.229295 
L 145.020945 245.124259 
L 145.247659 238.706417 
L 145.474373 242.731165 
L 145.701087 243.818935 
L 145.927801 238.380086 
L 146.154515 243.383827 
L 146.381229 233.702676 
L 146.607943 235.551885 
L 146.834657 241.86095 
L 147.061371 240.120518 
L 147.288085 251.977209 
L 147.741513 262.093468 
L 147.968228 262.854906 
L 148.194942 264.921669 
L 148.421656 263.290014 
L 148.64837 257.416058 
L 148.875084 261.114475 
L 149.101798 257.851165 
L 149.328512 264.486561 
L 149.555226 266.988432 
L 149.78194 266.988432 
L 150.235368 261.223252 
L 150.462082 253.608863 
L 150.688796 253.935194 
L 151.142224 257.959942 
L 151.368939 263.725122 
L 151.595653 266.553324 
L 151.822367 272.318504 
L 152.049081 267.967424 
L 152.275795 273.732604 
L 152.502509 269.490302 
L 152.729223 268.511309 
L 152.955937 263.616345 
L 153.182651 264.16023 
L 153.409365 263.07246 
L 153.636079 265.139223 
L 153.862793 271.774619 
L 154.089507 271.883396 
L 154.316221 272.209727 
L 154.542936 268.076201 
L 154.76965 266.662101 
L 154.996364 266.226993 
L 155.223078 263.725122 
L 155.449792 267.967424 
L 155.676506 267.858647 
L 155.90322 266.988432 
L 156.129934 270.686849 
L 156.583362 267.205986 
L 157.263504 271.665842 
L 157.490218 275.037928 
L 157.716932 274.385266 
L 157.943647 273.079942 
L 158.170361 273.079942 
L 158.397075 271.992173 
L 158.850503 275.473036 
L 159.077217 275.473036 
L 159.303931 273.732604 
L 159.530645 272.971165 
L 159.757359 270.578072 
L 159.984073 269.490302 
L 160.210787 272.753612 
L 160.664215 275.037928 
L 160.890929 275.255482 
L 161.117643 273.297496 
L 161.344358 273.079942 
L 161.571072 268.620086 
L 162.0245 272.209727 
L 162.251214 272.536058 
L 162.477928 274.711597 
L 162.704642 275.146705 
L 162.931356 275.255482 
L 163.15807 272.644835 
L 163.384784 274.494043 
L 163.611498 272.971165 
L 163.838212 273.188719 
L 164.064926 275.581813 
L 164.29164 273.406273 
L 164.518354 274.167712 
L 164.745069 273.188719 
L 164.971783 273.079942 
L 165.198497 274.167712 
L 165.425211 272.753612 
L 165.651925 273.623827 
L 166.105353 277.648576 
L 166.332067 280.694331 
L 166.785495 263.616345 
L 167.012209 268.402532 
L 167.238923 259.917928 
L 167.465637 274.058935 
L 167.692351 273.950158 
L 167.919066 270.578072 
L 168.14578 276.452029 
L 168.372494 270.142964 
L 168.599208 271.230734 
L 168.825922 276.452029 
L 169.052636 271.01318 
L 169.27935 276.452029 
L 169.732778 277.104691 
L 169.959492 279.171453 
L 170.186206 282.434763 
L 170.639634 282.761094 
L 170.866348 289.72282 
L 171.093062 285.262964 
L 171.546491 284.283971 
L 171.773205 279.389007 
L 171.999919 284.283971 
L 172.226633 284.936633 
L 172.453347 284.283971 
L 172.680061 281.346993 
L 172.906775 280.585554 
L 173.133489 280.368 
L 173.360203 280.694331 
L 173.586917 283.95764 
L 173.813631 284.501525 
L 174.040345 281.673324 
L 174.267059 281.564547 
L 174.493773 282.434763 
L 174.720488 281.673324 
L 174.947202 285.806849 
L 175.173916 286.241957 
L 175.40063 285.480518 
L 175.627344 286.13318 
L 175.854058 290.919367 
L 176.080772 283.631309 
L 176.307486 288.852604 
L 176.5342 280.911885 
L 176.760914 281.020662 
L 177.214342 279.824115 
L 177.441056 282.761094 
L 177.66777 281.673324 
L 178.121199 284.066417 
L 178.347913 283.848863 
L 178.574627 285.371741 
L 178.801341 282.978647 
L 179.028055 282.217209 
L 179.254769 281.999655 
L 179.481483 280.911885 
L 179.708197 284.066417 
L 179.934911 284.392748 
L 180.388339 286.568288 
L 180.841767 286.459511 
L 181.068481 282.869871 
L 181.295196 282.217209 
L 181.748624 279.28023 
L 181.975338 283.304978 
L 182.202052 283.522532 
L 182.65548 287.22095 
L 183.108908 285.262964 
L 183.335622 285.262964 
L 183.562336 285.806849 
L 183.78905 285.698072 
L 184.015764 287.22095 
L 184.469192 285.589295 
L 184.695907 287.329727 
L 184.922621 287.764835 
L 185.149335 289.831597 
L 185.376049 289.831597 
L 185.602763 284.936633 
L 185.829477 284.501525 
L 186.056191 281.999655 
L 186.282905 281.890878 
L 186.509619 284.066417 
L 186.736333 284.501525 
L 186.963047 282.217209 
L 187.189761 283.196201 
L 187.416475 282.652317 
L 187.643189 281.129439 
L 187.869904 285.589295 
L 188.096618 285.154187 
L 188.323332 287.329727 
L 188.77676 288.199942 
L 189.003474 287.764835 
L 189.230188 284.827856 
L 189.456902 284.827856 
L 189.683616 281.020662 
L 190.137044 282.761094 
L 190.363758 282.761094 
L 190.590472 285.806849 
L 190.817186 285.589295 
L 191.0439 287.547281 
L 191.270615 286.13318 
L 191.497329 283.196201 
L 191.724043 283.304978 
L 191.950757 282.652317 
L 192.404185 285.915626 
L 192.630899 285.480518 
L 192.857613 286.894619 
L 193.084327 286.024403 
L 193.311041 287.22095 
L 193.537755 287.764835 
L 193.764469 287.873612 
L 193.991183 288.308719 
L 194.444611 287.329727 
L 194.671326 283.522532 
L 194.89804 283.631309 
L 195.124754 285.698072 
L 195.351468 285.480518 
L 195.578182 285.915626 
L 195.804896 286.785842 
L 196.03161 286.459511 
L 196.485038 288.199942 
L 197.16518 286.024403 
L 197.391894 286.677065 
L 197.618608 286.785842 
L 197.845322 287.547281 
L 198.072037 287.329727 
L 198.298751 289.178935 
L 198.525465 288.961381 
L 198.752179 289.614043 
L 198.978893 289.396489 
L 199.205607 287.656058 
L 199.432321 287.982388 
L 199.659035 287.764835 
L 200.112463 288.308719 
L 200.339177 289.178935 
L 200.565891 289.070158 
L 201.019319 290.701813 
L 201.246034 290.157928 
L 201.699462 288.199942 
L 201.926176 285.262964 
L 202.15289 284.827856 
L 202.379604 285.480518 
L 202.606318 285.698072 
L 202.833032 288.308719 
L 203.059746 289.287712 
L 203.28646 289.72282 
L 203.513174 289.178935 
L 203.739888 288.961381 
L 203.966602 288.091165 
L 204.193316 288.743827 
L 204.42003 288.743827 
L 204.646745 288.961381 
L 204.873459 289.396489 
L 205.100173 287.329727 
L 205.553601 289.070158 
L 205.780315 289.178935 
L 206.007029 289.831597 
L 206.233743 289.505266 
L 206.460457 286.677065 
L 206.687171 286.241957 
L 206.913885 283.522532 
L 207.140599 283.740086 
L 207.367313 285.04541 
L 207.594027 285.480518 
L 207.820741 291.028144 
L 208.047456 290.919367 
L 208.27417 292.224691 
L 208.500884 291.463252 
L 208.727598 288.63505 
L 208.954312 287.329727 
L 209.181026 280.585554 
L 209.40774 281.020662 
L 209.634454 280.368 
L 209.861168 279.062676 
L 210.087882 281.673324 
L 210.314596 281.020662 
L 210.54131 282.652317 
L 210.768024 285.262964 
L 210.994738 289.72282 
L 211.221453 290.375482 
L 211.448167 289.070158 
L 211.674881 289.396489 
L 211.901595 288.199942 
L 212.128309 288.308719 
L 212.355023 290.049151 
L 212.581737 289.940374 
L 212.808451 289.396489 
L 213.488593 286.350734 
L 213.715307 287.112173 
L 213.942021 287.112173 
L 214.168735 287.764835 
L 214.395449 287.873612 
L 214.848878 290.049151 
L 215.075592 285.698072 
L 215.302306 284.392748 
L 215.52902 284.501525 
L 215.755734 284.392748 
L 215.982448 288.308719 
L 216.209162 289.72282 
L 216.66259 287.547281 
L 217.116018 287.22095 
L 217.569446 287.764835 
L 217.79616 283.95764 
L 218.022875 283.087424 
L 218.249589 283.522532 
L 218.476303 283.196201 
L 218.929731 285.262964 
L 219.156445 284.501525 
L 219.383159 284.283971 
L 219.609873 286.677065 
L 219.836587 285.698072 
L 220.290015 285.262964 
L 220.516729 287.329727 
L 220.743443 287.438504 
L 220.970157 284.392748 
L 221.423586 285.480518 
L 221.6503 285.154187 
L 221.877014 287.438504 
L 222.103728 287.764835 
L 222.78387 279.28023 
L 223.237298 272.536058 
L 223.464012 274.820374 
L 223.690726 275.473036 
L 223.91744 277.104691 
L 224.144154 274.711597 
L 224.370868 275.473036 
L 224.597583 277.322245 
L 224.824297 277.974906 
L 225.051011 282.108432 
L 225.504439 275.037928 
L 225.731153 276.016921 
L 225.957867 282.978647 
L 226.411295 283.196201 
L 226.638009 281.45577 
L 226.864723 280.911885 
L 227.091437 279.389007 
L 227.544865 281.346993 
L 227.771579 274.711597 
L 227.998294 280.259223 
L 228.225008 280.259223 
L 228.451722 280.041669 
L 228.678436 287.22095 
L 228.90515 282.978647 
L 229.131864 281.346993 
L 229.585292 280.585554 
L 229.812006 279.606561 
L 230.03872 288.743827 
L 230.492148 274.60282 
L 230.718862 280.476777 
L 230.945576 274.167712 
L 231.399005 288.308719 
L 231.625719 281.238216 
L 232.079147 279.389007 
L 232.305861 272.318504 
L 232.532575 279.28023 
L 232.986003 280.259223 
L 233.212717 278.19246 
L 233.439431 277.431022 
L 233.666145 282.325986 
L 233.892859 271.883396 
L 234.119573 277.866129 
L 234.573002 263.07246 
L 234.799716 272.971165 
L 235.02643 275.799367 
L 235.253144 270.578072 
L 235.479858 271.230734 
L 235.933286 271.557065 
L 236.386714 287.22095 
L 236.840142 275.69059 
L 237.066856 278.953899 
L 237.29357 272.209727 
L 237.520284 279.824115 
L 237.746998 276.560806 
L 237.973713 275.364259 
L 238.200427 281.238216 
L 238.427141 268.946417 
L 238.653855 269.163971 
L 238.880569 269.707856 
L 239.107283 264.16023 
L 239.333997 273.732604 
L 239.560711 274.711597 
L 239.787425 275.146705 
L 240.014139 274.276489 
L 240.240853 275.255482 
L 240.920995 268.620086 
L 241.147709 269.381525 
L 241.601138 272.862388 
L 241.827852 278.301237 
L 242.054566 278.19246 
L 242.28128 278.736345 
L 242.507994 280.259223 
L 242.734708 284.175194 
L 242.961422 279.28023 
L 243.188136 280.585554 
L 243.41485 279.932892 
L 243.641564 272.971165 
L 244.094992 282.434763 
L 244.321706 279.389007 
L 244.548421 280.150446 
L 244.775135 279.932892 
L 245.001849 274.60282 
L 245.228563 277.104691 
L 245.455277 273.623827 
L 245.681991 273.406273 
L 245.908705 271.01318 
L 246.135419 271.121957 
L 246.362133 280.585554 
L 246.588847 274.058935 
L 246.815561 282.217209 
L 247.042275 275.037928 
L 247.495703 275.146705 
L 247.722417 274.385266 
L 247.949132 274.820374 
L 248.175846 274.385266 
L 248.40256 272.427281 
L 248.629274 271.883396 
L 248.855988 270.469295 
L 249.082702 270.034187 
L 249.309416 272.209727 
L 249.53613 272.971165 
L 249.762844 275.581813 
L 249.989558 272.644835 
L 250.216272 273.51505 
L 250.6697 267.097209 
L 250.896414 270.034187 
L 251.123128 268.293755 
L 251.349843 269.92541 
L 251.576557 272.753612 
L 251.803271 271.557065 
L 252.256699 273.188719 
L 252.483413 271.230734 
L 252.710127 272.10095 
L 252.936841 269.490302 
L 253.163555 261.332029 
L 253.616983 261.440806 
L 253.843697 260.353036 
L 254.070411 268.83764 
L 254.297125 269.816633 
L 254.52384 269.163971 
L 254.750554 273.079942 
L 254.977268 273.406273 
L 255.203982 269.163971 
L 255.430696 269.272748 
L 255.65741 265.791885 
L 255.884124 265.465554 
L 256.110838 271.883396 
L 256.337552 273.079942 
L 256.564266 274.929151 
L 256.79098 274.385266 
L 257.017694 271.992173 
L 257.244408 271.557065 
L 257.471122 273.51505 
L 257.697836 272.209727 
L 257.924551 272.209727 
L 258.151265 271.557065 
L 258.377979 269.92541 
L 258.604693 269.92541 
L 258.831407 269.599079 
L 259.058121 269.707856 
L 259.284835 269.381525 
L 259.511549 270.686849 
L 259.738263 267.749871 
L 259.964977 267.314763 
L 260.191691 268.076201 
L 260.418405 264.269007 
L 260.645119 266.770878 
L 260.871833 264.486561 
L 261.098547 260.896921 
L 261.325262 263.181237 
L 261.551976 262.202245 
L 261.77869 263.942676 
L 262.005404 262.746129 
L 262.458832 263.398791 
L 262.685546 264.704115 
L 262.91226 269.055194 
L 263.138974 270.142964 
L 263.365688 272.753612 
L 263.592402 271.339511 
L 263.819116 271.01318 
L 264.04583 270.251741 
L 264.725973 266.662101 
L 265.406115 250.998216 
L 265.632829 255.131741 
L 265.859543 249.366561 
L 266.086257 255.89318 
L 266.312971 252.194763 
L 266.539685 253.064978 
L 266.766399 253.391309 
L 266.993113 254.696633 
L 267.89997 250.563108 
L 268.126684 251.868432 
L 268.353398 253.826417 
L 268.580112 259.374043 
L 268.806826 259.809151 
L 269.03354 257.416058 
L 269.260254 258.938935 
L 269.486968 254.80541 
L 269.713682 257.089727 
L 269.940396 261.223252 
L 270.16711 258.938935 
L 270.393824 261.005698 
L 270.620538 259.917928 
L 271.300681 264.704115 
L 271.527395 266.009439 
L 271.754109 266.662101 
L 271.980823 264.595338 
L 272.207537 264.051453 
L 272.434251 261.440806 
L 272.660965 255.349295 
L 273.114393 249.149007 
L 273.341107 249.910446 
L 273.567821 251.977209 
L 274.247963 260.57059 
L 274.474678 258.721381 
L 274.701392 259.265266 
L 274.928106 253.935194 
L 275.15482 251.977209 
L 275.381534 256.763396 
L 275.608248 256.98095 
L 275.834962 262.202245 
L 276.061676 262.746129 
L 276.515104 259.809151 
L 276.741818 256.98095 
L 276.968532 256.763396 
L 277.195246 257.416058 
L 277.42196 257.089727 
L 277.648674 259.156489 
L 277.875389 257.089727 
L 278.102103 252.956201 
L 278.328817 252.412317 
L 278.555531 249.692892 
L 278.782245 248.822676 
L 279.008959 250.345554 
L 279.235673 249.584115 
L 279.915815 260.353036 
L 280.142529 262.202245 
L 280.369243 256.219511 
L 280.595957 256.001957 
L 280.822671 252.738647 
L 281.049385 251.977209 
L 281.2761 256.001957 
L 281.502814 256.328288 
L 281.729528 254.261525 
L 281.956242 254.587856 
L 282.182956 251.868432 
L 282.40967 251.106993 
L 282.636384 253.608863 
L 282.863098 254.261525 
L 283.089812 259.047712 
L 283.316526 258.721381 
L 283.54324 256.110734 
L 283.769954 256.763396 
L 283.996668 250.998216 
L 284.223382 250.019223 
L 284.450096 250.889439 
L 284.676811 248.713899 
L 284.903525 253.173755 
L 285.130239 254.261525 
L 285.356953 254.479079 
L 285.583667 255.349295 
L 286.037095 254.043971 
L 286.263809 258.177496 
L 286.490523 259.047712 
L 286.717237 255.022964 
L 286.943951 256.545842 
L 287.397379 250.128 
L 287.624093 254.261525 
L 287.850808 254.80541 
L 288.077522 258.068719 
L 288.304236 259.48282 
L 288.53095 258.286273 
L 288.757664 260.026705 
L 288.984378 259.591597 
L 289.211092 258.721381 
L 289.437806 258.938935 
L 289.891234 254.696633 
L 290.344662 258.721381 
L 290.79809 60.094619 
L 291.024804 55.74354 
L 291.251519 53.568 
L 291.704947 249.149007 
L 291.931661 242.296058 
L 292.158375 249.366561 
L 292.838517 245.233036 
L 293.065231 245.45059 
L 293.291945 250.345554 
L 293.518659 249.801669 
L 293.745373 257.307281 
L 294.198801 254.80541 
L 294.425515 256.763396 
L 294.65223 252.738647 
L 294.878944 252.847424 
L 295.105658 250.563108 
L 295.332372 251.324547 
L 295.559086 252.521094 
L 295.7858 252.412317 
L 296.012514 254.261525 
L 296.239228 240.011741 
L 296.465942 240.881957 
L 296.692656 243.601381 
L 296.91937 242.404835 
L 297.146084 256.98095 
L 297.372798 257.959942 
L 297.599512 256.763396 
L 297.826227 267.205986 
L 298.052941 261.65836 
L 298.279655 265.248 
L 298.506369 266.662101 
L 298.733083 266.444547 
L 298.959797 263.833899 
L 299.186511 267.641094 
L 299.639939 253.500086 
L 299.866653 260.896921 
L 300.093367 255.131741 
L 300.320081 262.311022 
L 300.546795 258.286273 
L 300.773509 256.437065 
L 301.000223 257.851165 
L 301.226938 257.416058 
L 301.680366 264.377784 
L 301.90708 268.402532 
L 302.133794 262.854906 
L 302.360508 268.184978 
L 302.813936 255.240518 
L 303.04065 261.005698 
L 303.267364 262.202245 
L 303.494078 261.332029 
L 303.720792 263.290014 
L 303.947506 263.725122 
L 304.17422 255.566849 
L 304.400934 257.959942 
L 304.627649 262.419799 
L 304.854363 256.001957 
L 305.081077 257.742388 
L 305.307791 261.005698 
L 305.761219 255.022964 
L 305.987933 248.496345 
L 306.214647 246.53836 
L 306.441361 241.425842 
L 306.668075 246.647137 
L 306.894789 245.341813 
L 307.121503 245.776921 
L 307.348217 239.250302 
L 307.574931 241.752173 
L 307.801646 250.019223 
L 308.02836 249.801669 
L 308.255074 256.763396 
L 308.481788 253.282532 
L 308.708502 243.818935 
L 308.935216 243.492604 
L 309.388644 248.387568 
L 309.615358 255.349295 
L 309.842072 255.349295 
L 310.068786 254.479079 
L 310.522214 256.110734 
L 310.975642 255.458072 
L 311.202357 255.349295 
L 311.429071 250.889439 
L 311.655785 250.889439 
L 311.882499 251.21577 
L 312.109213 252.847424 
L 312.335927 256.98095 
L 312.562641 258.286273 
L 313.469497 252.629871 
L 314.149639 255.784403 
L 314.376353 255.784403 
L 315.056496 249.692892 
L 315.28321 248.496345 
L 315.509924 248.170014 
L 315.736638 246.647137 
L 315.963352 247.734906 
L 316.190066 246.973468 
L 316.41678 249.475338 
L 316.643494 250.345554 
L 317.096922 253.391309 
L 317.323636 252.956201 
L 317.55035 254.043971 
L 317.777064 251.977209 
L 318.003779 254.370302 
L 318.230493 253.608863 
L 318.457207 254.043971 
L 318.683921 255.675626 
L 318.910635 254.370302 
L 319.364063 250.019223 
L 319.590777 250.236777 
L 319.817491 248.278791 
L 320.044205 248.387568 
L 320.270919 250.019223 
L 320.497633 247.517353 
L 320.951061 253.391309 
L 321.177776 253.173755 
L 321.40449 257.089727 
L 321.631204 246.212029 
L 321.857918 249.366561 
L 322.084632 248.822676 
L 322.311346 245.668144 
L 322.53806 256.98095 
L 322.764774 251.21577 
L 323.218202 254.696633 
L 323.444916 251.868432 
L 323.67163 250.563108 
L 323.898344 250.671885 
L 324.125058 249.801669 
L 324.351772 251.106993 
L 324.578487 250.780662 
L 324.805201 250.889439 
L 325.031915 252.194763 
L 325.258629 252.738647 
L 325.485343 253.826417 
L 325.938771 254.152748 
L 326.165485 255.240518 
L 326.392199 257.307281 
L 326.618913 247.95246 
L 326.845627 253.391309 
L 327.072341 245.668144 
L 327.525769 262.528576 
L 327.752483 256.328288 
L 327.979198 254.479079 
L 328.205912 253.935194 
L 328.432626 252.521094 
L 328.65934 252.30354 
L 328.886054 255.458072 
L 329.112768 255.675626 
L 329.339482 256.219511 
L 329.566196 255.675626 
L 329.79291 262.528576 
L 330.019624 256.328288 
L 330.246338 256.001957 
L 330.699766 253.608863 
L 330.92648 252.194763 
L 331.153195 251.542101 
L 331.379909 254.696633 
L 331.606623 255.458072 
L 331.833337 251.868432 
L 332.060051 252.30354 
L 332.286765 251.106993 
L 332.513479 250.780662 
L 332.740193 255.675626 
L 332.966907 255.675626 
L 333.420335 253.391309 
L 333.647049 255.675626 
L 334.100477 249.257784 
L 334.327191 248.170014 
L 334.553906 245.341813 
L 335.007334 251.977209 
L 335.234048 250.780662 
L 335.460762 252.629871 
L 335.687476 250.236777 
L 335.91419 249.801669 
L 336.140904 251.106993 
L 336.594332 244.797928 
L 336.821046 250.780662 
L 337.04776 252.085986 
L 337.274474 254.043971 
L 337.501188 258.39505 
L 337.727902 254.152748 
L 337.954617 252.847424 
L 338.634759 245.341813 
L 338.861473 239.902964 
L 339.088187 247.734906 
L 339.541615 248.605122 
L 339.768329 252.085986 
L 340.221757 239.467856 
L 340.448471 245.994475 
L 340.675185 240.881957 
L 341.128614 251.868432 
L 341.355328 246.53836 
L 341.808756 249.910446 
L 342.03547 245.559367 
L 342.488898 256.763396 
L 342.715612 246.103252 
L 342.942326 241.969727 
L 343.16904 243.383827 
L 343.395754 236.09577 
L 343.622468 244.36282 
L 343.849182 242.078504 
L 344.075896 238.488863 
L 344.30261 231.744691 
L 344.529325 230.004259 
L 344.756039 232.614906 
L 344.982753 225.435626 
L 345.209467 236.09577 
L 345.436181 229.24282 
L 345.889609 237.18354 
L 346.116323 237.401094 
L 346.343037 240.120518 
L 346.569751 235.551885 
L 346.796465 240.446849 
L 347.023179 235.769439 
L 347.249893 240.011741 
L 347.476607 239.576633 
L 347.703321 240.120518 
L 347.930036 239.250302 
L 348.15675 235.116777 
L 348.383464 242.839942 
L 348.610178 235.878216 
L 348.836892 243.166273 
L 349.063606 241.317065 
L 349.29032 241.86095 
L 349.743748 244.254043 
L 349.970462 247.299799 
L 350.197176 245.668144 
L 350.42389 245.124259 
L 350.877318 241.317065 
L 351.104033 242.839942 
L 351.330747 245.233036 
L 351.557461 231.092029 
L 351.784175 236.857209 
L 352.010889 230.004259 
L 352.237603 226.849727 
L 352.464317 238.923971 
L 352.691031 236.639655 
L 352.917745 244.689151 
L 353.144459 246.53836 
L 353.371173 250.671885 
L 353.597887 246.973468 
L 353.824601 245.559367 
L 354.051315 246.212029 
L 354.278029 234.464115 
L 354.504744 240.881957 
L 354.731458 234.681669 
L 354.958172 240.229295 
L 355.184886 242.078504 
L 355.4116 242.187281 
L 355.638314 243.492604 
L 355.865028 241.969727 
L 356.091742 243.492604 
L 356.318456 244.036489 
L 356.54517 243.818935 
L 356.771884 240.338072 
L 356.998598 246.755914 
L 357.225312 240.555626 
L 357.452026 246.973468 
L 357.67874 247.191022 
L 357.905455 247.626129 
L 358.132169 247.082245 
L 358.585597 242.404835 
L 358.812311 242.622388 
L 359.039025 240.446849 
L 359.492453 243.601381 
L 359.719167 230.656921 
L 359.945881 239.794187 
L 360.172595 239.68541 
L 360.399309 238.162532 
L 360.626023 246.320806 
L 360.852737 243.818935 
L 361.079451 238.923971 
L 361.306166 246.755914 
L 361.53288 245.668144 
L 361.759594 249.366561 
L 361.986308 247.408576 
L 362.213022 244.036489 
L 362.439736 243.27505 
L 362.893164 238.162532 
L 363.119878 232.83246 
L 363.346592 240.555626 
L 363.573306 234.572892 
L 363.80002 231.744691 
L 364.026734 238.923971 
L 364.253448 233.593899 
L 364.706877 247.191022 
L 364.933591 247.517353 
L 365.160305 245.45059 
L 365.613733 234.029007 
L 365.840447 221.845986 
L 366.067161 221.084547 
L 366.520589 227.828719 
L 366.747303 241.208288 
L 366.974017 241.317065 
L 367.427445 244.580374 
L 367.880874 241.752173 
L 368.107588 229.569151 
L 368.334302 232.941237 
L 368.561016 220.866993 
L 368.78773 216.842245 
L 369.014444 227.937496 
L 369.241158 219.126561 
L 369.467872 216.189583 
L 369.694586 219.779223 
L 369.9213 220.97577 
L 370.148014 229.24282 
L 370.374728 216.842245 
L 370.601442 213.905266 
L 370.828156 205.85577 
L 371.05487 211.294619 
L 371.281585 230.983252 
L 371.508299 240.229295 
L 371.735013 243.27505 
L 371.961727 242.513612 
L 372.188441 248.496345 
L 372.415155 250.889439 
L 372.641869 245.124259 
L 373.095297 241.534619 
L 373.322011 241.643396 
L 373.548725 247.299799 
L 373.775439 248.496345 
L 374.002153 245.45059 
L 374.455582 248.822676 
L 374.682296 248.713899 
L 374.90901 247.626129 
L 375.362438 240.664403 
L 375.589152 239.141525 
L 375.815866 238.815194 
L 376.496008 243.601381 
L 376.722722 247.734906 
L 376.949436 249.149007 
L 377.17615 243.166273 
L 377.402864 243.927712 
L 377.856293 242.404835 
L 378.083007 247.734906 
L 378.536435 249.149007 
L 378.763149 250.128 
L 378.989863 246.864691 
L 379.216577 247.191022 
L 379.443291 246.647137 
L 379.670005 247.082245 
L 379.896719 245.124259 
L 380.123433 245.885698 
L 380.350147 244.797928 
L 380.576861 244.36282 
L 380.803575 249.149007 
L 381.030289 247.517353 
L 381.483718 248.822676 
L 381.710432 245.124259 
L 381.937146 231.635914 
L 382.16386 237.727424 
L 382.390574 233.050014 
L 382.617288 243.710158 
L 382.844002 248.387568 
L 383.070716 248.713899 
L 383.29743 253.71764 
L 383.524144 249.475338 
L 383.750858 252.194763 
L 383.977572 251.106993 
L 384.204286 244.145266 
L 384.431001 248.496345 
L 384.657715 248.931453 
L 384.884429 250.671885 
L 385.111143 248.605122 
L 385.337857 248.931453 
L 385.564571 248.931453 
L 385.791285 248.061237 
L 386.017999 251.324547 
L 386.244713 251.324547 
L 386.471427 251.542101 
L 386.698141 250.780662 
L 386.924855 247.082245 
L 387.151569 245.233036 
L 387.604997 239.032748 
L 387.831712 237.727424 
L 388.058426 238.488863 
L 388.511854 247.299799 
L 388.738568 247.191022 
L 388.965282 243.057496 
L 389.191996 244.689151 
L 389.41871 244.254043 
L 389.872138 253.064978 
L 390.325566 255.566849 
L 390.55228 253.935194 
L 390.778994 254.914187 
L 391.005708 249.257784 
L 391.232423 249.04023 
L 391.459137 250.889439 
L 391.685851 251.21577 
L 391.912565 256.328288 
L 392.139279 256.654619 
L 392.365993 256.545842 
L 392.592707 256.219511 
L 392.819421 253.608863 
L 393.046135 252.521094 
L 393.272849 248.822676 
L 393.499563 249.257784 
L 393.726277 250.236777 
L 393.952991 251.977209 
L 394.179705 257.089727 
L 394.859848 259.591597 
L 395.086562 259.156489 
L 395.53999 255.022964 
L 395.766704 254.80541 
L 395.993418 254.914187 
L 396.220132 256.654619 
L 396.446846 256.98095 
L 396.67356 256.328288 
L 396.900274 253.173755 
L 397.126988 253.173755 
L 397.580416 250.780662 
L 397.807131 253.391309 
L 398.033845 253.173755 
L 398.487273 252.085986 
L 398.487273 252.085986 
" clip-path="url(#p0b58f7cbd2)" style="fill: none; stroke: #ff0000; stroke-width: 1.5; stroke-linecap: square"/>
   </g>
   <g id="line2d_15">
    <path d="M 73.832727 257.742388 
L 74.059441 255.784403 
L 74.286155 257.633612 
L 74.512869 255.349295 
L 74.739584 257.307281 
L 74.966298 257.307281 
L 75.193012 254.696633 
L 75.419726 256.328288 
L 75.64644 256.763396 
L 75.873154 255.566849 
L 76.099868 256.545842 
L 76.553296 253.500086 
L 76.78001 255.131741 
L 77.006724 255.566849 
L 77.233438 253.935194 
L 77.460152 255.022964 
L 77.91358 252.085986 
L 78.140295 252.412317 
L 78.367009 248.496345 
L 78.593723 248.496345 
L 79.047151 249.584115 
L 79.273865 250.345554 
L 79.500579 251.650878 
L 79.727293 251.433324 
L 80.180721 254.370302 
L 80.634149 254.152748 
L 80.860863 253.608863 
L 81.314292 251.106993 
L 81.541006 250.671885 
L 81.76772 246.320806 
L 81.994434 248.387568 
L 82.221148 247.408576 
L 82.447862 247.082245 
L 82.674576 249.584115 
L 82.90129 247.734906 
L 83.128004 248.605122 
L 83.354718 247.95246 
L 83.581432 245.341813 
L 83.808146 245.885698 
L 84.03486 243.927712 
L 84.261574 242.948719 
L 84.488288 245.45059 
L 84.715003 243.383827 
L 85.168431 244.036489 
L 85.395145 240.881957 
L 85.621859 239.794187 
L 85.848573 240.011741 
L 86.075287 239.250302 
L 86.302001 239.576633 
L 86.528715 241.752173 
L 86.755429 238.271309 
L 86.982143 237.618647 
L 87.208857 238.271309 
L 87.435571 236.09577 
L 87.662285 237.836201 
L 88.115714 235.225554 
L 88.342428 237.18354 
L 88.569142 234.790446 
L 88.795856 233.702676 
L 89.02257 236.09577 
L 89.249284 234.464115 
L 89.475998 234.899223 
L 89.702712 234.464115 
L 89.929426 232.506129 
L 90.15614 229.569151 
L 90.382854 229.569151 
L 90.609568 231.092029 
L 90.836282 228.698935 
L 91.289711 229.786705 
L 91.516425 226.088288 
L 91.743139 228.916489 
L 92.196567 224.347856 
L 92.423281 227.393612 
L 92.649995 223.260086 
L 92.876709 223.151309 
L 93.103423 224.674187 
L 93.556851 225.435626 
L 93.783565 228.481381 
L 94.010279 228.263827 
L 94.236993 226.849727 
L 94.463707 227.937496 
L 95.14385 220.649439 
L 95.370564 219.344115 
L 95.597278 219.888 
L 95.823992 222.824978 
L 96.27742 219.452892 
L 96.504134 217.168576 
L 96.730848 213.470158 
L 96.957562 213.578935 
L 97.184276 215.754475 
L 97.41099 216.624691 
L 97.637704 216.515914 
L 97.864418 217.386129 
L 98.091133 217.494906 
L 98.317847 215.863252 
L 98.544561 217.168576 
L 98.771275 214.557928 
L 98.997989 210.206849 
L 99.224703 211.294619 
L 99.451417 209.119079 
L 99.678131 211.294619 
L 99.904845 212.382388 
L 100.358273 210.206849 
L 100.584987 212.382388 
L 100.811701 213.470158 
L 101.038415 213.905266 
L 101.26513 211.294619 
L 101.491844 211.294619 
L 101.718558 209.119079 
L 101.945272 208.031309 
L 102.171986 211.294619 
L 102.3987 212.382388 
L 102.625414 211.294619 
L 102.852128 213.470158 
L 103.305556 205.85577 
L 103.53227 208.031309 
L 103.758984 208.031309 
L 103.985698 211.294619 
L 104.212412 212.382388 
L 104.439126 211.294619 
L 104.892555 206.94354 
L 105.119269 210.206849 
L 105.799411 210.206849 
L 106.026125 206.94354 
L 106.252839 210.206849 
L 106.479553 208.031309 
L 106.706267 208.031309 
L 106.932981 206.94354 
L 107.159695 203.68023 
L 107.386409 205.85577 
L 107.613123 205.85577 
L 107.839837 206.94354 
L 108.066552 205.85577 
L 108.293266 205.85577 
L 108.51998 201.504691 
L 108.746694 202.59246 
L 108.973408 205.85577 
L 109.200122 206.94354 
L 109.426836 210.206849 
L 109.65355 210.206849 
L 109.880264 206.94354 
L 110.333692 209.119079 
L 110.560406 209.119079 
L 110.78712 210.206849 
L 111.013834 209.119079 
L 111.240549 210.206849 
L 112.147405 205.85577 
L 112.827547 205.85577 
L 113.054261 203.68023 
L 113.280975 204.768 
L 113.507689 204.768 
L 113.734403 205.85577 
L 113.961117 209.119079 
L 114.187831 205.85577 
L 114.414545 205.85577 
L 114.64126 203.68023 
L 114.867974 203.68023 
L 115.094688 202.59246 
L 115.321402 200.416921 
L 115.548116 203.68023 
L 115.77483 200.416921 
L 116.001544 200.416921 
L 116.228258 203.68023 
L 116.454972 204.768 
L 116.681686 206.94354 
L 116.9084 211.294619 
L 117.135114 211.294619 
L 117.361828 209.119079 
L 117.815256 213.470158 
L 118.041971 213.796489 
L 118.268685 215.21059 
L 118.722113 211.294619 
L 119.402255 211.294619 
L 119.628969 214.340374 
L 119.855683 215.101813 
L 120.309111 218.256345 
L 120.535825 216.080806 
L 120.762539 215.536921 
L 120.989253 214.557928 
L 121.215967 212.382388 
L 121.442682 211.294619 
L 121.669396 211.294619 
L 121.89611 213.470158 
L 122.122824 213.796489 
L 122.576252 219.126561 
L 122.802966 217.603683 
L 123.02968 218.909007 
L 123.256394 217.277353 
L 123.483108 217.168576 
L 123.709822 217.277353 
L 124.16325 219.779223 
L 124.389964 219.670446 
L 124.616679 220.649439 
L 124.843393 219.452892 
L 125.070107 219.344115 
L 125.296821 221.519655 
L 125.523535 222.06354 
L 125.750249 225.000518 
L 125.976963 225.218072 
L 126.430391 224.782964 
L 126.657105 223.47764 
L 126.883819 226.74095 
L 127.110533 225.109295 
L 127.563961 229.351597 
L 127.790675 226.523396 
L 128.01739 230.221813 
L 128.244104 230.439367 
L 128.470818 228.263827 
L 128.697532 229.134043 
L 128.924246 228.372604 
L 129.15096 228.807712 
L 129.604388 233.158791 
L 129.831102 231.744691 
L 130.28453 235.443108 
L 130.511244 233.376345 
L 130.737958 235.769439 
L 131.191386 236.313324 
L 131.418101 240.011741 
L 131.871529 238.706417 
L 132.098243 235.660662 
L 132.324957 235.008 
L 132.551671 235.878216 
L 132.778385 235.225554 
L 133.005099 240.120518 
L 133.231813 240.011741 
L 133.458527 238.59764 
L 133.685241 241.752173 
L 133.911955 240.011741 
L 134.138669 241.969727 
L 134.365383 245.015482 
L 134.592098 243.927712 
L 134.818812 243.492604 
L 135.045526 240.446849 
L 135.498954 242.078504 
L 135.952382 247.843683 
L 136.179096 247.517353 
L 136.40581 249.910446 
L 136.632524 250.671885 
L 137.085952 252.847424 
L 137.312666 251.324547 
L 137.53938 251.650878 
L 137.766094 251.650878 
L 138.446237 253.71764 
L 138.672951 254.80541 
L 139.126379 258.503827 
L 139.353093 258.830158 
L 139.579807 256.001957 
L 139.806521 255.675626 
L 140.713377 262.311022 
L 140.940091 244.689151 
L 141.166805 246.320806 
L 141.39352 245.994475 
L 141.620234 244.036489 
L 141.846948 243.927712 
L 142.073662 244.254043 
L 142.300376 243.601381 
L 142.753804 247.191022 
L 142.980518 246.429583 
L 143.207232 247.082245 
L 143.433946 249.257784 
L 143.66066 250.019223 
L 143.887374 250.345554 
L 144.340802 252.521094 
L 144.567517 253.71764 
L 145.020945 257.959942 
L 145.247659 258.177496 
L 145.474373 257.742388 
L 145.701087 259.047712 
L 145.927801 259.700374 
L 146.154515 261.005698 
L 146.381229 261.549583 
L 146.607943 261.65836 
L 146.834657 262.311022 
L 147.288085 265.248 
L 147.514799 267.097209 
L 147.741513 270.142964 
L 147.968228 270.795626 
L 148.194942 270.360518 
L 148.421656 271.339511 
L 148.64837 268.83764 
L 148.875084 268.184978 
L 149.101798 269.272748 
L 149.555226 269.272748 
L 149.78194 271.883396 
L 150.008654 272.971165 
L 150.235368 271.992173 
L 150.462082 273.623827 
L 150.91551 266.444547 
L 151.142224 266.770878 
L 151.368939 264.377784 
L 151.822367 269.381525 
L 152.049081 270.251741 
L 152.275795 273.51505 
L 152.502509 273.188719 
L 152.729223 273.51505 
L 152.955937 273.51505 
L 153.182651 274.058935 
L 153.409365 275.69059 
L 153.636079 275.581813 
L 153.862793 275.255482 
L 154.089507 275.255482 
L 154.542936 271.01318 
L 154.76965 271.883396 
L 154.996364 270.469295 
L 155.223078 274.167712 
L 155.449792 274.494043 
L 155.676506 274.385266 
L 155.90322 275.037928 
L 156.129934 272.427281 
L 156.356648 275.146705 
L 156.583362 274.820374 
L 156.810076 275.255482 
L 157.03679 275.364259 
L 157.263504 274.276489 
L 157.490218 274.929151 
L 157.716932 274.385266 
L 158.623789 278.19246 
L 158.850503 278.083683 
L 159.303931 276.77836 
L 159.757359 279.389007 
L 159.984073 279.171453 
L 160.210787 278.410014 
L 160.437501 278.410014 
L 160.664215 278.083683 
L 161.344358 282.217209 
L 161.571072 282.108432 
L 161.797786 283.304978 
L 162.0245 283.631309 
L 162.477928 280.803108 
L 162.704642 280.259223 
L 163.15807 277.322245 
L 163.384784 277.974906 
L 163.611498 278.083683 
L 163.838212 280.150446 
L 164.064926 280.150446 
L 164.29164 280.803108 
L 164.518354 280.803108 
L 165.198497 283.413755 
L 165.425211 284.610302 
L 165.651925 284.936633 
L 165.878639 285.915626 
L 166.105353 285.589295 
L 166.332067 283.631309 
L 166.558781 283.631309 
L 167.012209 282.325986 
L 167.238923 284.392748 
L 167.465637 284.392748 
L 167.919066 287.764835 
L 169.052636 285.371741 
L 169.27935 287.112173 
L 170.186206 281.999655 
L 170.866348 286.677065 
L 171.093062 286.785842 
L 171.319777 284.610302 
L 171.546491 284.501525 
L 171.773205 285.262964 
L 171.999919 284.066417 
L 172.226633 285.480518 
L 172.453347 288.091165 
L 172.680061 286.894619 
L 173.133489 289.178935 
L 173.360203 283.848863 
L 173.586917 284.392748 
L 174.040345 283.196201 
L 174.267059 284.066417 
L 174.493773 281.673324 
L 174.720488 281.999655 
L 174.947202 281.564547 
L 175.173916 283.087424 
L 175.40063 285.806849 
L 175.627344 284.610302 
L 175.854058 284.501525 
L 176.080772 285.04541 
L 176.307486 283.087424 
L 176.5342 284.392748 
L 176.987628 283.740086 
L 177.214342 285.698072 
L 177.441056 286.677065 
L 177.66777 288.743827 
L 177.894485 287.112173 
L 178.121199 286.568288 
L 178.347913 284.719079 
L 178.574627 284.283971 
L 178.801341 286.024403 
L 179.028055 285.698072 
L 179.254769 287.112173 
L 179.708197 284.827856 
L 179.934911 286.13318 
L 180.161625 285.480518 
L 180.388339 286.350734 
L 180.615053 287.764835 
L 180.841767 284.392748 
L 181.295196 281.564547 
L 181.52191 281.129439 
L 181.975338 283.740086 
L 182.428766 283.631309 
L 182.65548 285.589295 
L 182.882194 284.610302 
L 183.108908 286.350734 
L 183.335622 290.375482 
L 183.562336 288.308719 
L 183.78905 289.070158 
L 184.015764 288.199942 
L 184.242478 286.241957 
L 184.469192 289.178935 
L 184.695907 288.199942 
L 184.922621 289.287712 
L 185.149335 288.199942 
L 185.376049 285.806849 
L 185.602763 287.22095 
L 185.829477 287.003396 
L 186.056191 285.371741 
L 186.282905 286.894619 
L 186.736333 288.417496 
L 186.963047 290.375482 
L 187.189761 288.743827 
L 187.416475 288.852604 
L 187.869904 285.480518 
L 188.096618 286.459511 
L 188.323332 285.371741 
L 188.550046 285.262964 
L 188.77676 289.287712 
L 189.003474 289.396489 
L 189.230188 288.961381 
L 189.456902 289.614043 
L 189.683616 286.894619 
L 189.91033 287.764835 
L 190.137044 289.505266 
L 190.363758 288.852604 
L 190.817186 289.72282 
L 191.0439 289.831597 
L 191.270615 291.136921 
L 191.724043 288.743827 
L 191.950757 288.852604 
L 192.404185 287.873612 
L 192.630899 288.199942 
L 193.084327 284.719079 
L 193.537755 287.764835 
L 193.764469 288.852604 
L 193.991183 289.287712 
L 194.217897 287.003396 
L 194.89804 284.719079 
L 195.124754 285.154187 
L 195.351468 288.417496 
L 195.578182 289.178935 
L 195.804896 294.944115 
L 196.03161 295.488 
L 196.258324 291.680806 
L 196.485038 291.680806 
L 196.711752 288.743827 
L 197.16518 291.354475 
L 197.391894 290.375482 
L 197.618608 290.701813 
L 197.845322 289.72282 
L 198.072037 290.049151 
L 198.298751 291.136921 
L 198.525465 288.961381 
L 198.752179 288.961381 
L 199.205607 285.371741 
L 199.432321 286.894619 
L 199.659035 286.677065 
L 199.885749 291.354475 
L 200.112463 292.333468 
L 200.339177 291.245698 
L 200.565891 291.463252 
L 200.792605 287.547281 
L 201.019319 288.417496 
L 201.246034 288.743827 
L 201.472748 287.982388 
L 201.699462 288.308719 
L 201.926176 287.003396 
L 202.379604 288.526273 
L 202.606318 288.63505 
L 202.833032 290.484259 
L 203.059746 289.178935 
L 203.28646 290.266705 
L 203.739888 290.919367 
L 203.966602 290.157928 
L 204.193316 290.157928 
L 204.42003 290.81059 
L 204.646745 288.961381 
L 204.873459 290.81059 
L 205.100173 290.593036 
L 205.326887 288.526273 
L 205.553601 289.614043 
L 205.780315 289.178935 
L 206.007029 292.007137 
L 206.233743 293.421237 
L 206.460457 292.551022 
L 206.687171 293.421237 
L 206.913885 291.89836 
L 207.140599 291.463252 
L 207.367313 291.680806 
L 207.820741 287.873612 
L 208.047456 287.764835 
L 208.27417 288.743827 
L 208.500884 290.484259 
L 208.727598 290.484259 
L 208.954312 291.245698 
L 209.40774 288.743827 
L 209.634454 289.070158 
L 209.861168 285.371741 
L 210.087882 285.698072 
L 210.54131 287.003396 
L 210.768024 289.396489 
L 211.221453 290.919367 
L 211.448167 291.136921 
L 211.674881 295.270446 
L 212.128309 294.509007 
L 212.355023 293.638791 
L 212.581737 290.919367 
L 212.808451 290.593036 
L 213.035165 288.852604 
L 213.261879 288.852604 
L 213.488593 289.070158 
L 213.715307 286.459511 
L 214.168735 286.13318 
L 214.395449 284.501525 
L 214.622164 287.112173 
L 214.848878 286.785842 
L 215.075592 285.589295 
L 215.302306 286.13318 
L 215.52902 285.371741 
L 215.755734 286.785842 
L 215.982448 287.22095 
L 216.209162 287.112173 
L 216.435876 288.199942 
L 216.66259 285.154187 
L 216.889304 285.154187 
L 217.116018 285.371741 
L 217.342732 283.848863 
L 217.79616 288.743827 
L 218.476303 288.743827 
L 218.929731 285.698072 
L 219.156445 285.806849 
L 219.383159 285.371741 
L 219.609873 285.698072 
L 219.836587 285.262964 
L 220.290015 287.438504 
L 220.970157 287.438504 
L 221.196872 286.350734 
L 221.423586 286.785842 
L 221.6503 289.614043 
L 221.877014 287.112173 
L 222.103728 287.873612 
L 222.330442 285.480518 
L 222.557156 281.346993 
L 222.78387 280.150446 
L 223.010584 276.560806 
L 223.464012 278.627568 
L 223.690726 278.410014 
L 223.91744 282.325986 
L 224.144154 283.087424 
L 224.370868 283.413755 
L 224.597583 287.003396 
L 224.824297 287.003396 
L 225.277725 288.63505 
L 225.504439 291.136921 
L 225.957867 287.764835 
L 226.184581 287.112173 
L 226.411295 280.694331 
L 226.638009 283.304978 
L 226.864723 283.196201 
L 227.091437 283.522532 
L 227.318151 286.024403 
L 227.998294 281.890878 
L 228.225008 281.782101 
L 228.451722 280.803108 
L 228.678436 281.45577 
L 228.90515 283.304978 
L 229.358578 283.522532 
L 229.585292 285.371741 
L 230.03872 280.803108 
L 230.265434 281.020662 
L 230.492148 280.259223 
L 230.718862 281.238216 
L 230.945576 283.740086 
L 231.172291 282.978647 
L 231.625719 280.476777 
L 231.852433 277.866129 
L 232.079147 278.410014 
L 232.305861 277.866129 
L 232.759289 282.434763 
L 233.212717 283.087424 
L 233.439431 282.652317 
L 233.666145 282.978647 
L 233.892859 284.392748 
L 234.119573 282.108432 
L 234.346287 281.673324 
L 234.573002 280.585554 
L 234.799716 278.627568 
L 235.02643 281.238216 
L 235.253144 280.150446 
L 236.16 282.978647 
L 236.386714 282.217209 
L 236.840142 280.150446 
L 237.066856 280.476777 
L 237.29357 280.476777 
L 237.520284 281.782101 
L 237.746998 281.45577 
L 238.653855 271.339511 
L 238.880569 271.665842 
L 239.107283 272.862388 
L 239.333997 276.125698 
L 239.560711 275.581813 
L 239.787425 276.77836 
L 240.014139 276.560806 
L 240.240853 275.473036 
L 240.467567 278.19246 
L 240.694281 276.887137 
L 240.920995 277.322245 
L 241.147709 278.953899 
L 241.374424 275.581813 
L 241.601138 277.322245 
L 241.827852 278.083683 
L 242.054566 276.125698 
L 242.28128 278.301237 
L 242.507994 278.627568 
L 242.734708 278.19246 
L 242.961422 280.368 
L 243.188136 280.911885 
L 243.41485 282.434763 
L 243.641564 282.652317 
L 244.548421 278.518791 
L 244.775135 279.171453 
L 245.001849 278.736345 
L 245.228563 281.45577 
L 245.455277 280.911885 
L 245.681991 279.062676 
L 245.908705 281.020662 
L 246.135419 277.539799 
L 246.362133 278.627568 
L 246.588847 278.19246 
L 246.815561 276.016921 
L 247.042275 275.037928 
L 247.268989 275.364259 
L 247.722417 280.803108 
L 247.949132 280.041669 
L 248.175846 278.627568 
L 248.40256 278.736345 
L 248.629274 278.083683 
L 248.855988 279.171453 
L 249.082702 278.845122 
L 249.309416 280.476777 
L 249.53613 279.28023 
L 249.989558 274.60282 
L 250.216272 270.469295 
L 250.442986 269.92541 
L 250.896414 275.581813 
L 251.123128 276.016921 
L 251.349843 275.581813 
L 251.576557 274.276489 
L 251.803271 274.385266 
L 252.029985 273.623827 
L 252.483413 276.343252 
L 252.936841 274.711597 
L 253.163555 274.820374 
L 253.390269 272.862388 
L 253.616983 272.10095 
L 253.843697 271.992173 
L 254.070411 271.665842 
L 254.297125 272.862388 
L 254.52384 273.297496 
L 254.750554 276.560806 
L 254.977268 276.995914 
L 255.203982 276.016921 
L 255.430696 276.560806 
L 255.65741 274.058935 
L 255.884124 274.494043 
L 256.110838 276.995914 
L 256.337552 277.866129 
L 256.564266 278.19246 
L 256.79098 277.866129 
L 257.244408 274.276489 
L 257.471122 274.60282 
L 257.697836 273.297496 
L 257.924551 273.51505 
L 258.151265 273.079942 
L 258.377979 272.209727 
L 258.604693 272.10095 
L 258.831407 272.427281 
L 259.058121 272.209727 
L 259.284835 272.644835 
L 259.511549 274.385266 
L 259.738263 271.557065 
L 259.964977 272.427281 
L 260.418405 268.728863 
L 260.645119 270.360518 
L 260.871833 270.904403 
L 261.098547 273.51505 
L 261.551976 275.146705 
L 261.77869 274.494043 
L 262.005404 273.297496 
L 262.232118 271.01318 
L 262.458832 270.686849 
L 262.685546 269.381525 
L 262.91226 268.83764 
L 263.138974 270.795626 
L 263.365688 270.686849 
L 263.819116 274.929151 
L 264.04583 274.929151 
L 264.499259 272.753612 
L 264.725973 269.490302 
L 264.952687 268.946417 
L 265.632829 271.448288 
L 265.859543 268.83764 
L 266.086257 269.490302 
L 266.312971 268.511309 
L 266.539685 268.83764 
L 266.766399 271.121957 
L 266.993113 271.774619 
L 267.446541 269.381525 
L 267.673255 270.686849 
L 267.89997 269.599079 
L 268.126684 269.816633 
L 268.353398 271.774619 
L 268.580112 270.686849 
L 268.806826 270.578072 
L 269.03354 271.230734 
L 269.260254 269.381525 
L 269.713682 270.360518 
L 269.940396 270.904403 
L 270.16711 272.644835 
L 270.393824 271.774619 
L 270.620538 271.448288 
L 270.847252 270.904403 
L 271.073966 268.184978 
L 271.300681 270.251741 
L 271.527395 269.816633 
L 271.754109 270.469295 
L 271.980823 272.10095 
L 272.207537 270.360518 
L 272.660965 269.272748 
L 272.887679 267.967424 
L 273.114393 268.184978 
L 273.567821 266.879655 
L 274.021249 269.92541 
L 274.247963 270.904403 
L 274.474678 270.795626 
L 274.701392 270.251741 
L 274.928106 266.988432 
L 275.381534 269.055194 
L 275.608248 268.946417 
L 275.834962 270.578072 
L 276.061676 269.707856 
L 276.28839 267.42354 
L 276.515104 267.205986 
L 276.968532 265.465554 
L 277.195246 267.314763 
L 277.42196 267.42354 
L 277.875389 266.226993 
L 278.102103 263.833899 
L 278.782245 262.637353 
L 279.008959 264.051453 
L 279.235673 263.616345 
L 279.462387 264.377784 
L 279.915815 263.398791 
L 280.142529 260.353036 
L 280.369243 260.026705 
L 280.595957 262.528576 
L 280.822671 262.963683 
L 281.049385 267.097209 
L 281.502814 265.900662 
L 281.729528 265.683108 
L 281.956242 263.942676 
L 282.182956 265.683108 
L 282.40967 265.248 
L 282.636384 265.356777 
L 282.863098 266.879655 
L 283.089812 266.553324 
L 283.316526 266.444547 
L 283.769954 263.725122 
L 283.996668 264.051453 
L 284.223382 264.16023 
L 284.450096 264.812892 
L 284.903525 265.139223 
L 285.130239 263.398791 
L 285.356953 263.398791 
L 285.583667 263.616345 
L 285.810381 263.616345 
L 286.037095 264.921669 
L 286.263809 264.595338 
L 286.490523 264.595338 
L 286.717237 261.984691 
L 286.943951 261.440806 
L 287.170665 261.984691 
L 287.397379 261.875914 
L 287.624093 265.683108 
L 287.850808 265.683108 
L 288.077522 264.921669 
L 288.304236 265.139223 
L 288.53095 263.616345 
L 288.984378 266.118216 
L 289.211092 266.118216 
L 289.437806 265.139223 
L 289.66452 263.07246 
L 289.891234 262.528576 
L 290.344662 263.833899 
L 290.79809 60.094619 
L 291.024804 56.831309 
L 291.251519 56.831309 
L 291.704947 259.809151 
L 291.931661 263.398791 
L 292.158375 262.093468 
L 292.611803 263.507568 
L 292.838517 261.65836 
L 293.065231 262.419799 
L 293.291945 265.139223 
L 293.518659 262.419799 
L 293.745373 262.854906 
L 293.972087 262.854906 
L 294.198801 262.528576 
L 294.425515 266.662101 
L 294.878944 265.900662 
L 295.105658 266.988432 
L 295.332372 265.248 
L 295.559086 265.791885 
L 295.7858 267.097209 
L 296.012514 263.833899 
L 296.239228 262.963683 
L 296.465942 261.440806 
L 296.692656 262.202245 
L 296.91937 264.16023 
L 297.146084 264.704115 
L 297.372798 266.226993 
L 297.599512 265.030446 
L 298.052941 267.42354 
L 298.279655 265.683108 
L 298.506369 265.574331 
L 298.959797 264.269007 
L 299.186511 266.444547 
L 299.413225 267.42354 
L 299.639939 265.574331 
L 299.866653 265.248 
L 300.093367 264.051453 
L 300.320081 264.812892 
L 300.773509 262.202245 
L 301.000223 262.963683 
L 301.226938 260.896921 
L 301.680366 266.553324 
L 301.90708 266.770878 
L 302.133794 268.511309 
L 302.360508 268.83764 
L 302.587222 270.251741 
L 302.813936 269.707856 
L 303.04065 267.42354 
L 303.267364 266.988432 
L 303.494078 264.595338 
L 303.720792 264.269007 
L 304.17422 267.641094 
L 304.400934 267.097209 
L 304.627649 266.988432 
L 304.854363 265.683108 
L 305.081077 262.963683 
L 305.307791 262.854906 
L 305.761219 256.763396 
L 305.987933 255.458072 
L 306.214647 255.022964 
L 306.668075 256.654619 
L 306.894789 255.784403 
L 307.348217 250.671885 
L 307.574931 251.868432 
L 307.801646 254.152748 
L 308.02836 255.240518 
L 308.255074 258.830158 
L 308.481788 258.286273 
L 308.708502 255.240518 
L 308.935216 256.437065 
L 309.388644 254.914187 
L 309.615358 257.959942 
L 309.842072 257.524835 
L 310.068786 258.39505 
L 310.2955 260.244259 
L 310.522214 260.026705 
L 310.748928 260.57059 
L 311.202357 259.156489 
L 311.655785 259.265266 
L 311.882499 257.416058 
L 312.109213 257.959942 
L 312.335927 256.98095 
L 312.562641 256.763396 
L 312.789355 258.938935 
L 313.016069 258.938935 
L 313.242783 258.503827 
L 313.469497 257.307281 
L 313.696211 257.198504 
L 313.922925 257.416058 
L 314.149639 257.959942 
L 314.603068 260.026705 
L 314.829782 258.068719 
L 315.056496 257.851165 
L 315.509924 253.935194 
L 315.736638 253.391309 
L 315.963352 253.282532 
L 316.643494 255.784403 
L 316.870208 255.349295 
L 317.096922 255.675626 
L 317.323636 256.654619 
L 317.55035 259.700374 
L 317.777064 261.114475 
L 318.003779 260.461813 
L 318.230493 260.353036 
L 318.683921 253.064978 
L 318.910635 255.458072 
L 319.137349 255.240518 
L 319.364063 256.98095 
L 319.590777 261.114475 
L 319.817491 259.374043 
L 320.044205 260.135482 
L 320.270919 260.135482 
L 320.497633 259.047712 
L 320.724347 259.591597 
L 320.951061 257.524835 
L 321.40449 258.177496 
L 321.631204 259.156489 
L 321.857918 261.440806 
L 322.084632 261.767137 
L 322.764774 258.068719 
L 323.218202 256.98095 
L 323.444916 256.872173 
L 323.67163 254.043971 
L 323.898344 252.956201 
L 324.125058 252.629871 
L 324.351772 251.433324 
L 324.578487 253.391309 
L 324.805201 254.261525 
L 325.031915 255.784403 
L 325.258629 256.545842 
L 325.485343 256.872173 
L 325.712057 254.587856 
L 325.938771 253.826417 
L 326.165485 252.629871 
L 326.392199 253.71764 
L 327.299055 262.963683 
L 327.752483 264.486561 
L 327.979198 264.704115 
L 328.432626 262.093468 
L 328.65934 259.591597 
L 329.112768 260.679367 
L 329.566196 263.833899 
L 329.79291 263.290014 
L 330.019624 260.353036 
L 330.246338 260.353036 
L 330.699766 257.851165 
L 330.92648 259.265266 
L 331.153195 259.374043 
L 331.379909 259.700374 
L 331.833337 260.57059 
L 332.060051 259.809151 
L 332.286765 259.591597 
L 332.966907 256.437065 
L 333.420335 259.48282 
L 333.647049 258.830158 
L 333.873763 257.633612 
L 334.100477 259.047712 
L 334.327191 258.612604 
L 334.78062 261.984691 
L 335.234048 260.135482 
L 335.460762 261.114475 
L 335.687476 260.461813 
L 335.91419 257.416058 
L 336.140904 258.830158 
L 336.367618 257.416058 
L 336.594332 258.39505 
L 336.821046 258.721381 
L 337.04776 257.198504 
L 337.274474 258.39505 
L 337.501188 257.416058 
L 337.954617 258.938935 
L 338.181331 257.307281 
L 338.408045 257.089727 
L 338.634759 255.240518 
L 338.861473 255.89318 
L 339.088187 255.458072 
L 339.314901 254.479079 
L 339.541615 256.110734 
L 339.768329 254.370302 
L 339.995043 254.914187 
L 340.221757 257.089727 
L 340.448471 257.198504 
L 340.675185 256.437065 
L 340.901899 253.608863 
L 341.128614 252.521094 
L 341.355328 252.412317 
L 341.582042 253.826417 
L 341.808756 257.198504 
L 342.03547 256.437065 
L 342.488898 257.524835 
L 342.715612 254.914187 
L 342.942326 256.001957 
L 343.16904 254.696633 
L 343.395754 255.131741 
L 343.622468 253.935194 
L 343.849182 253.71764 
L 344.075896 253.173755 
L 344.30261 247.626129 
L 344.529325 247.843683 
L 344.756039 247.299799 
L 344.982753 247.843683 
L 345.436181 253.500086 
L 345.662895 250.019223 
L 345.889609 250.345554 
L 346.116323 250.998216 
L 346.343037 250.889439 
L 346.569751 254.043971 
L 346.796465 253.71764 
L 347.023179 253.064978 
L 347.249893 250.454331 
L 347.476607 250.780662 
L 347.703321 248.278791 
L 347.930036 247.734906 
L 348.15675 250.128 
L 348.383464 247.517353 
L 348.836892 251.650878 
L 349.063606 251.977209 
L 349.29032 253.935194 
L 349.517034 254.043971 
L 349.743748 253.173755 
L 349.970462 254.696633 
L 350.42389 255.675626 
L 350.650604 255.89318 
L 350.877318 254.479079 
L 351.330747 253.935194 
L 351.557461 252.847424 
L 351.784175 250.019223 
L 352.010889 249.910446 
L 352.464317 247.95246 
L 352.691031 250.345554 
L 352.917745 248.931453 
L 353.371173 253.608863 
L 353.597887 252.521094 
L 353.824601 254.914187 
L 354.278029 250.454331 
L 354.504744 252.085986 
L 354.731458 250.019223 
L 354.958172 250.563108 
L 355.184886 252.30354 
L 355.4116 252.629871 
L 355.638314 252.629871 
L 355.865028 253.935194 
L 356.318456 250.454331 
L 356.54517 250.454331 
L 356.771884 250.998216 
L 357.452026 256.110734 
L 357.67874 254.587856 
L 357.905455 255.349295 
L 358.132169 255.566849 
L 358.358883 254.370302 
L 358.585597 254.587856 
L 359.039025 249.584115 
L 359.265739 250.998216 
L 359.492453 250.128 
L 359.945881 253.282532 
L 360.172595 251.759655 
L 360.399309 253.391309 
L 360.626023 253.608863 
L 360.852737 254.696633 
L 361.079451 254.696633 
L 361.306166 253.500086 
L 361.53288 253.935194 
L 362.213022 252.30354 
L 362.439736 249.910446 
L 362.893164 242.513612 
L 363.119878 243.166273 
L 363.80002 251.759655 
L 364.026734 250.563108 
L 364.253448 247.408576 
L 364.480163 249.584115 
L 364.706877 250.345554 
L 365.160305 253.935194 
L 365.613733 249.366561 
L 365.840447 249.692892 
L 366.067161 249.04023 
L 366.520589 254.043971 
L 366.747303 253.500086 
L 366.974017 252.085986 
L 367.200731 251.542101 
L 367.427445 249.257784 
L 367.654159 249.149007 
L 368.107588 250.563108 
L 368.334302 250.998216 
L 368.561016 248.278791 
L 369.241158 245.45059 
L 369.9213 249.801669 
L 370.601442 252.30354 
L 370.828156 251.542101 
L 371.05487 252.956201 
L 371.281585 251.759655 
L 371.508299 251.759655 
L 371.735013 252.521094 
L 371.961727 249.910446 
L 372.188441 252.194763 
L 372.415155 253.064978 
L 372.641869 252.956201 
L 372.868583 253.935194 
L 373.095297 253.173755 
L 373.322011 251.542101 
L 373.548725 252.521094 
L 373.775439 249.801669 
L 374.002153 248.496345 
L 374.228867 250.236777 
L 374.455582 249.04023 
L 374.90901 250.671885 
L 375.362438 248.931453 
L 375.589152 249.910446 
L 375.815866 246.429583 
L 376.269294 245.559367 
L 376.722722 249.910446 
L 376.949436 250.019223 
L 377.17615 251.324547 
L 377.402864 249.149007 
L 378.309721 255.784403 
L 378.536435 257.524835 
L 378.989863 256.545842 
L 379.216577 254.261525 
L 379.443291 255.349295 
L 379.670005 255.675626 
L 379.896719 254.261525 
L 380.123433 256.654619 
L 380.350147 254.80541 
L 380.803575 256.654619 
L 381.030289 257.198504 
L 381.257004 258.177496 
L 381.483718 256.328288 
L 381.710432 256.763396 
L 381.937146 256.110734 
L 382.16386 256.001957 
L 382.390574 256.872173 
L 382.617288 258.286273 
L 382.844002 258.612604 
L 383.070716 258.068719 
L 383.29743 257.959942 
L 383.750858 261.114475 
L 383.977572 261.65836 
L 384.204286 261.332029 
L 384.431001 256.654619 
L 384.884429 254.80541 
L 385.111143 255.022964 
L 385.337857 256.654619 
L 385.564571 256.872173 
L 386.017999 258.39505 
L 386.244713 260.788144 
L 386.924855 257.089727 
L 387.378283 252.412317 
L 387.604997 252.847424 
L 387.831712 253.71764 
L 388.058426 253.608863 
L 388.28514 254.914187 
L 388.511854 255.458072 
L 388.965282 253.935194 
L 389.41871 254.587856 
L 389.645424 254.370302 
L 390.098852 257.198504 
L 390.325566 256.872173 
L 390.55228 257.416058 
L 390.778994 259.700374 
L 391.232423 258.068719 
L 391.459137 257.524835 
L 391.685851 257.959942 
L 392.139279 259.374043 
L 392.365993 258.938935 
L 392.592707 256.110734 
L 393.046135 254.479079 
L 393.499563 257.851165 
L 393.726277 257.416058 
L 393.952991 259.047712 
L 394.179705 258.286273 
L 394.40642 259.047712 
L 394.633134 257.307281 
L 394.859848 256.872173 
L 395.086562 258.177496 
L 395.313276 258.177496 
L 395.53999 259.156489 
L 396.220132 254.696633 
L 396.67356 257.416058 
L 396.900274 256.763396 
L 397.126988 258.286273 
L 397.353702 256.437065 
L 397.580416 257.524835 
L 397.807131 256.654619 
L 398.033845 254.370302 
L 398.260559 254.914187 
L 398.487273 252.30354 
L 398.487273 252.30354 
" clip-path="url(#p0b58f7cbd2)" style="fill: none; stroke: #1f77b4; stroke-width: 1.5; stroke-linecap: square"/>
   </g>
   <g id="patch_3">
    <path d="M 57.6 307.584 
L 57.6 41.472 
" style="fill: none; stroke: #000000; stroke-width: 0.8; stroke-linejoin: miter; stroke-linecap: square"/>
   </g>
   <g id="patch_4">
    <path d="M 414.72 307.584 
L 414.72 41.472 
" style="fill: none; stroke: #000000; stroke-width: 0.8; stroke-linejoin: miter; stroke-linecap: square"/>
   </g>
   <g id="patch_5">
    <path d="M 57.6 307.584 
L 414.72 307.584 
" style="fill: none; stroke: #000000; stroke-width: 0.8; stroke-linejoin: miter; stroke-linecap: square"/>
   </g>
   <g id="patch_6">
    <path d="M 57.6 41.472 
L 414.72 41.472 
" style="fill: none; stroke: #000000; stroke-width: 0.8; stroke-linejoin: miter; stroke-linecap: square"/>
   </g>
   <g id="patch_7">
    <path d="M 309.731268 63.697296 
Q 303.162652 61.093266 296.594037 58.489236 
L 295.856973 60.348466 
Q 293.992022 58.264491 292.127071 56.180517 
Q 294.913352 55.940454 297.699633 55.700391 
L 296.962569 57.559621 
Q 303.531185 60.163651 310.0998 62.767681 
L 309.731268 63.697296 
z
" style="stroke: #000000; stroke-linecap: round"/>
   </g>
   <g id="text_16">
    <!-- Full Update -->
    <g transform="translate(313.016069 72.060086) scale(0.1 -0.1)">
     <defs>
      <path id="DejaVuSans-46" d="M 628 4666 
L 3309 4666 
L 3309 4134 
L 1259 4134 
L 1259 2759 
L 3109 2759 
L 3109 2228 
L 1259 2228 
L 1259 0 
L 628 0 
L 628 4666 
z
" transform="scale(0.015625)"/>
      <path id="DejaVuSans-75" d="M 544 1381 
L 544 3500 
L 1119 3500 
L 1119 1403 
Q 1119 906 1312 657 
Q 1506 409 1894 409 
Q 2359 409 2629 706 
Q 2900 1003 2900 1516 
L 2900 3500 
L 3475 3500 
L 3475 0 
L 2900 0 
L 2900 538 
Q 2691 219 2414 64 
Q 2138 -91 1772 -91 
Q 1169 -91 856 284 
Q 544 659 544 1381 
z
M 1991 3584 
L 1991 3584 
z
" transform="scale(0.015625)"/>
      <path id="DejaVuSans-6c" d="M 603 4863 
L 1178 4863 
L 1178 0 
L 603 0 
L 603 4863 
z
" transform="scale(0.015625)"/>
      <path id="DejaVuSans-70" d="M 1159 525 
L 1159 -1331 
L 581 -1331 
L 581 3500 
L 1159 3500 
L 1159 2969 
Q 1341 3281 1617 3432 
Q 1894 3584 2278 3584 
Q 2916 3584 3314 3078 
Q 3713 2572 3713 1747 
Q 3713 922 3314 415 
Q 2916 -91 2278 -91 
Q 1894 -91 1617 61 
Q 1341 213 1159 525 
z
M 3116 1747 
Q 3116 2381 2855 2742 
Q 2594 3103 2138 3103 
Q 1681 3103 1420 2742 
Q 1159 2381 1159 1747 
Q 1159 1113 1420 752 
Q 1681 391 2138 391 
Q 2594 391 2855 752 
Q 3116 1113 3116 1747 
z
" transform="scale(0.015625)"/>
      <path id="DejaVuSans-64" d="M 2906 2969 
L 2906 4863 
L 3481 4863 
L 3481 0 
L 2906 0 
L 2906 525 
Q 2725 213 2448 61 
Q 2172 -91 1784 -91 
Q 1150 -91 751 415 
Q 353 922 353 1747 
Q 353 2572 751 3078 
Q 1150 3584 1784 3584 
Q 2172 3584 2448 3432 
Q 2725 3281 2906 2969 
z
M 947 1747 
Q 947 1113 1208 752 
Q 1469 391 1925 391 
Q 2381 391 2643 752 
Q 2906 1113 2906 1747 
Q 2906 2381 2643 2742 
Q 2381 3103 1925 3103 
Q 1469 3103 1208 2742 
Q 947 2381 947 1747 
z
" transform="scale(0.015625)"/>
     </defs>
     <use xlink:href="#DejaVuSans-46"/>
     <use xlink:href="#DejaVuSans-75" x="52.019531"/>
     <use xlink:href="#DejaVuSans-6c" x="115.398438"/>
     <use xlink:href="#DejaVuSans-6c" x="143.181641"/>
     <use xlink:href="#DejaVuSans-20" x="170.964844"/>
     <use xlink:href="#DejaVuSans-55" x="202.751953"/>
     <use xlink:href="#DejaVuSans-70" x="275.945312"/>
     <use xlink:href="#DejaVuSans-64" x="339.421875"/>
     <use xlink:href="#DejaVuSans-61" x="402.898438"/>
     <use xlink:href="#DejaVuSans-74" x="464.177734"/>
     <use xlink:href="#DejaVuSans-65" x="503.386719"/>
    </g>
   </g>
   <g id="legend_1">
    <g id="patch_8">
     <path d="M 64.6 78.82825 
L 158.364062 78.82825 
Q 160.364062 78.82825 160.364062 76.82825 
L 160.364062 48.472 
Q 160.364062 46.472 158.364062 46.472 
L 64.6 46.472 
Q 62.6 46.472 62.6 48.472 
L 62.6 76.82825 
Q 62.6 78.82825 64.6 78.82825 
z
" style="fill: #ffffff; opacity: 0.8; stroke: #cccccc; stroke-linejoin: miter"/>
    </g>
    <g id="line2d_16">
     <path d="M 66.6 54.570437 
L 76.6 54.570437 
L 86.6 54.570437 
" style="fill: none; stroke: #ff0000; stroke-width: 1.5; stroke-linecap: square"/>
    </g>
    <g id="text_17">
     <!-- Old Version -->
     <g transform="translate(94.6 58.070437) scale(0.1 -0.1)">
      <defs>
       <path id="DejaVuSans-4f" d="M 2522 4238 
Q 1834 4238 1429 3725 
Q 1025 3213 1025 2328 
Q 1025 1447 1429 934 
Q 1834 422 2522 422 
Q 3209 422 3611 934 
Q 4013 1447 4013 2328 
Q 4013 3213 3611 3725 
Q 3209 4238 2522 4238 
z
M 2522 4750 
Q 3503 4750 4090 4092 
Q 4678 3434 4678 2328 
Q 4678 1225 4090 567 
Q 3503 -91 2522 -91 
Q 1538 -91 948 565 
Q 359 1222 359 2328 
Q 359 3434 948 4092 
Q 1538 4750 2522 4750 
z
" transform="scale(0.015625)"/>
       <path id="DejaVuSans-56" d="M 1831 0 
L 50 4666 
L 709 4666 
L 2188 738 
L 3669 4666 
L 4325 4666 
L 2547 0 
L 1831 0 
z
" transform="scale(0.015625)"/>
       <path id="DejaVuSans-6f" d="M 1959 3097 
Q 1497 3097 1228 2736 
Q 959 2375 959 1747 
Q 959 1119 1226 758 
Q 1494 397 1959 397 
Q 2419 397 2687 759 
Q 2956 1122 2956 1747 
Q 2956 2369 2687 2733 
Q 2419 3097 1959 3097 
z
M 1959 3584 
Q 2709 3584 3137 3096 
Q 3566 2609 3566 1747 
Q 3566 888 3137 398 
Q 2709 -91 1959 -91 
Q 1206 -91 779 398 
Q 353 888 353 1747 
Q 353 2609 779 3096 
Q 1206 3584 1959 3584 
z
" transform="scale(0.015625)"/>
      </defs>
      <use xlink:href="#DejaVuSans-4f"/>
      <use xlink:href="#DejaVuSans-6c" x="78.710938"/>
      <use xlink:href="#DejaVuSans-64" x="106.494141"/>
      <use xlink:href="#DejaVuSans-20" x="169.970703"/>
      <use xlink:href="#DejaVuSans-56" x="201.757812"/>
      <use xlink:href="#DejaVuSans-65" x="262.416016"/>
      <use xlink:href="#DejaVuSans-72" x="323.939453"/>
      <use xlink:href="#DejaVuSans-73" x="365.052734"/>
      <use xlink:href="#DejaVuSans-69" x="417.152344"/>
      <use xlink:href="#DejaVuSans-6f" x="444.935547"/>
      <use xlink:href="#DejaVuSans-6e" x="506.117188"/>
     </g>
    </g>
    <g id="line2d_17">
     <path d="M 66.6 69.248562 
L 76.6 69.248562 
L 86.6 69.248562 
" style="fill: none; stroke: #1f77b4; stroke-width: 1.5; stroke-linecap: square"/>
    </g>
    <g id="text_18">
     <!-- New Version -->
     <g transform="translate(94.6 72.748562) scale(0.1 -0.1)">
      <defs>
       <path id="DejaVuSans-4e" d="M 628 4666 
L 1478 4666 
L 3547 763 
L 3547 4666 
L 4159 4666 
L 4159 0 
L 3309 0 
L 1241 3903 
L 1241 0 
L 628 0 
L 628 4666 
z
" transform="scale(0.015625)"/>
       <path id="DejaVuSans-77" d="M 269 3500 
L 844 3500 
L 1563 769 
L 2278 3500 
L 2956 3500 
L 3675 769 
L 4391 3500 
L 4966 3500 
L 4050 0 
L 3372 0 
L 2619 2869 
L 1863 0 
L 1184 0 
L 269 3500 
z
" transform="scale(0.015625)"/>
      </defs>
      <use xlink:href="#DejaVuSans-4e"/>
      <use xlink:href="#DejaVuSans-65" x="74.804688"/>
      <use xlink:href="#DejaVuSans-77" x="136.328125"/>
      <use xlink:href="#DejaVuSans-20" x="218.115234"/>
      <use xlink:href="#DejaVuSans-56" x="249.902344"/>
      <use xlink:href="#DejaVuSans-65" x="310.560547"/>
      <use xlink:href="#DejaVuSans-72" x="372.083984"/>
      <use xlink:href="#DejaVuSans-73" x="413.197266"/>
      <use xlink:href="#DejaVuSans-69" x="465.296875"/>
      <use xlink:href="#DejaVuSans-6f" x="493.080078"/>
      <use xlink:href="#DejaVuSans-6e" x="554.261719"/>
     </g>
    </g>
   </g>
  </g>
 </g>
 <defs>
  <clipPath id="p0b58f7cbd2">
   <rect x="57.6" y="41.472" width="357.12" height="266.112"/>
  </clipPath>
 </defs>
</svg>
